<svg width="239" height="241" viewBox="0 0 239 241" fill="none" xmlns="http://www.w3.org/2000/svg">
<path opacity="0.2" fill-rule="evenodd" clip-rule="evenodd" d="M208.688 0.913414L210.137 2.36176C210.155 2.37987 210.174 2.39832 210.192 2.41707L238.235 30.4606L182.024 228.498L146.554 240.33L0.295903 94.0719L10.6507 57.1246L208.688 0.913414ZM163.255 159.471L205.914 6.04526L179.143 13.6439L168.483 50.7051L168.543 50.9237L168.41 50.9602L143.021 139.236L163.255 159.471ZM166.333 164.004C166.243 164.353 166.061 164.684 165.787 164.958C164.97 165.775 163.647 165.775 162.831 164.959L99.3889 101.517L67.0365 110.554L179.294 222.812L233.544 31.6823L209.741 7.8792L166.333 164.004ZM104.011 100.226L139.643 135.859L153.9 86.2906L104.011 100.226ZM32.3733 120.237L62.4148 111.845L176.504 225.934L147.685 235.548L32.3733 120.237ZM155.247 81.605C155.133 81.6172 155.018 81.639 154.904 81.6709L28.9815 116.845L7.27224 95.1355L163.689 52.2544L155.247 81.605ZM165.042 47.5501L5.40936 91.3128L14.0433 60.5059L174.408 14.988L165.042 47.5501Z" fill="url(#paint0_radial_556_25681)"/>
<defs>
<radialGradient id="paint0_radial_556_25681" cx="0" cy="0" r="1" gradientUnits="userSpaceOnUse" gradientTransform="translate(146.596 92.5526) rotate(111.717) scale(163.858 186.276)">
<stop stop-color="#2A4C9B"/>
<stop offset="1" stop-color="#299FD9"/>
</radialGradient>
</defs>
</svg>
