<svg width="41" height="56" viewBox="0 0 41 56" fill="none" xmlns="http://www.w3.org/2000/svg">
<path d="M25.1244 12.0401C32.4422 15.4312 36.5073 23.3051 35.0342 31.2347C34.788 32.5033 35.5359 33.7192 36.7346 34.1016C36.8305 34.1322 36.9264 34.1628 37.0299 34.1694C38.402 34.4222 39.7194 33.5218 39.9722 32.1497C41.8776 21.9543 36.637 11.8036 27.2218 7.45285C25.9491 6.88836 24.4521 7.44095 23.8876 8.71363C23.2992 9.97867 23.8517 11.4756 25.1244 12.0401ZM24.4217 17.3893C23.2581 16.6483 21.6948 16.9948 20.9462 18.1823C20.1976 19.3699 20.5517 20.9092 21.7393 21.6578C24.05 23.1082 25.3887 25.7012 25.2493 28.4566C25.1928 29.6272 25.9223 30.6523 27.0012 30.9965C27.193 31.0577 27.4164 31.1026 27.6235 31.1158C29.0011 31.1855 30.189 30.1117 30.2827 28.7416C30.5096 24.1387 28.273 19.8065 24.4217 17.3893ZM32.5391 41.3741L26.6716 38.7363C25.2627 38.1019 23.6637 38.1465 22.3039 38.8485L16.4855 41.8525C10.8022 36.2359 7.00693 28.9235 5.72675 21.0135L11.5768 17.9932C12.9366 17.2912 13.8989 16.0134 14.1976 14.4974L15.4297 8.23418C15.9145 5.72103 14.4579 3.24892 12.0126 2.46882L7.86511 1.1457C5.15606 0.281472 2.18359 1.81611 1.48717 4.57872C-3.77368 25.4579 7.3845 47.0318 27.4289 54.8262C30.0844 55.8583 33.0569 54.3236 33.9211 51.6146L35.2442 47.4671C36.0407 45.0533 34.8687 42.4343 32.5391 41.3741Z" fill="white"/>
</svg>
