<svg width="46" height="46" viewBox="0 0 46 46" fill="none" xmlns="http://www.w3.org/2000/svg">
<path d="M4.60908 22.9448C6.28808 26.6633 9.14755 30.6918 12.4538 33.998C15.9803 37.5245 19.8707 40.3173 23.4087 41.8606C25.335 42.7012 27.0582 43.1216 28.509 43.1216C29.9511 43.1216 31.1235 42.7052 31.9555 41.8727L35.2928 38.5365C36.3065 37.5216 36.2157 35.7805 35.0898 34.6541L30.1724 29.7361C29.0454 28.6103 27.3032 28.52 26.29 29.5337L24.7588 31.0649C24.3345 31.3823 21.7119 30.5745 18.7616 27.6241C15.8095 24.6727 14.9999 22.0484 15.319 21.628L16.852 20.0951C17.8657 19.0808 17.7749 17.3385 16.649 16.2127L11.7305 11.2953C10.6035 10.1694 8.86235 10.078 7.84805 11.0929L4.5119 14.429C2.84613 16.0942 2.88063 19.1187 4.6085 22.9448H4.60908ZM6.13858 16.0552L9.4753 12.719C9.4983 12.696 9.5443 12.6822 9.60353 12.6822C9.73348 12.6822 9.9307 12.7472 10.1049 12.9214L15.0223 17.8388C15.2765 18.0929 15.2983 18.396 15.2253 18.469L13.6924 20.0014C11.7868 21.9081 13.9816 26.0969 17.1349 29.2502C18.7052 30.82 20.4319 32.0746 21.9971 32.7813C24.5731 33.9451 25.8513 33.2252 26.3832 32.6922L27.9161 31.1598C27.9897 31.0862 28.2916 31.1086 28.5463 31.3622L33.4632 36.2802C33.7173 36.5344 33.7392 36.8368 33.6661 36.9098L30.3294 40.2466C29.4037 41.1729 27.1606 40.9883 24.3287 39.7521C21.0478 38.3209 17.408 35.6994 14.0799 32.3719C10.9623 29.2543 8.2747 25.4725 6.70495 21.9978C5.4365 19.1901 5.22433 16.9688 6.138 16.0552H6.13858ZM42.7201 25.4938C42.7201 13.022 32.5731 2.875 20.1013 2.875V5.175C31.3052 5.175 40.4201 14.2905 40.4201 25.4938H42.7201Z" fill="#1554A3"/>
<path d="M20.5273 9.15674V11.4567C28.5026 11.4567 34.9915 17.945 34.9915 25.9203H37.2915C37.2915 16.6766 29.7705 9.15674 20.5273 9.15674Z" fill="#1554A3"/>
<path d="M29.1357 25.9201H31.4357C31.4357 19.9056 26.5424 15.0112 20.5273 15.0112V17.3112C25.274 17.3112 29.1357 21.1735 29.1357 25.9201Z" fill="#1554A3"/>
</svg>
