<svg width="20" height="20" viewBox="0 0 20 20" fill="none" xmlns="http://www.w3.org/2000/svg">
<mask id="mask0_457_18234" style="mask-type:alpha" maskUnits="userSpaceOnUse" x="0" y="0" width="20" height="20">
<rect width="20" height="20" fill="#D9D9D9"/>
</mask>
<g mask="url(#mask0_457_18234)">
<path d="M11.1554 10L8.59292 12.5625L9.16667 13.1571L12.3237 10L9.16667 6.84292L8.59292 7.4375L11.1554 10ZM10.0027 17.5C8.96562 17.5 7.99056 17.3032 7.0775 16.9096C6.16458 16.516 5.37042 15.9818 4.695 15.3071C4.01958 14.6324 3.48493 13.8389 3.09104 12.9267C2.69701 12.0146 2.5 11.0399 2.5 10.0027C2.5 8.96562 2.69681 7.99056 3.09042 7.0775C3.48403 6.16458 4.01819 5.37042 4.69292 4.695C5.36764 4.01958 6.16111 3.48493 7.07333 3.09104C7.98542 2.69701 8.96007 2.5 9.99729 2.5C11.0344 2.5 12.0094 2.69681 12.9225 3.09042C13.8354 3.48403 14.6296 4.01819 15.305 4.69292C15.9804 5.36764 16.5151 6.16111 16.909 7.07333C17.303 7.98542 17.5 8.96007 17.5 9.99729C17.5 11.0344 17.3032 12.0094 16.9096 12.9225C16.516 13.8354 15.9818 14.6296 15.3071 15.305C14.6324 15.9804 13.8389 16.5151 12.9267 16.909C12.0146 17.303 11.0399 17.5 10.0027 17.5ZM10 16.6667C11.8611 16.6667 13.4375 16.0208 14.7292 14.7292C16.0208 13.4375 16.6667 11.8611 16.6667 10C16.6667 8.13889 16.0208 6.5625 14.7292 5.27083C13.4375 3.97917 11.8611 3.33333 10 3.33333C8.13889 3.33333 6.5625 3.97917 5.27083 5.27083C3.97917 6.5625 3.33333 8.13889 3.33333 10C3.33333 11.8611 3.97917 13.4375 5.27083 14.7292C6.5625 16.0208 8.13889 16.6667 10 16.6667Z" fill="white"/>
</g>
</svg>
