<svg width="46" height="46" viewBox="0 0 46 46" fill="none" xmlns="http://www.w3.org/2000/svg">
<circle cx="23" cy="23" r="23" fill="#062E61"/>
<path d="M32.2084 31.6553L26.5232 25.9701C26.412 25.859 26.2636 25.7997 26.1022 25.8144C25.9459 25.8264 25.8028 25.9062 25.7105 26.0325C24.6624 27.4644 23.2236 29.0484 22.7528 29.1244C21.1846 29.3766 18.9557 28.318 17.0645 26.4273C15.1732 24.5361 14.1147 22.3036 14.3673 20.739C14.4434 20.2682 16.0279 18.83 17.4598 17.7819C17.5862 17.6896 17.6659 17.5465 17.6779 17.3902C17.69 17.234 17.6328 17.0799 17.5222 16.9692L11.8365 11.2836C11.6571 11.1043 11.3782 11.0755 11.1653 11.2123C10.2226 11.8216 5.52051 14.968 5.52051 17.0631C5.52051 24.4884 19.0034 37.9711 26.4289 37.9711C28.524 37.9711 31.6705 33.2691 32.2797 32.3264C32.4171 32.1141 32.3872 31.8341 32.2084 31.6553ZM11.3872 12.3527L16.3257 17.2912C15.7978 17.6974 15.0715 18.2874 14.4623 18.8946L9.39007 13.8224C10.0485 13.2933 10.7451 12.784 11.3872 12.3527ZM26.4289 36.8974C19.5702 36.8974 6.59435 23.9217 6.59435 17.0632C6.59435 16.471 7.44561 15.5015 8.5645 14.5153L13.7489 19.6996C13.5134 20.0135 13.3486 20.3118 13.3072 20.5682C12.936 22.8663 14.6123 25.4941 16.3053 27.1866C17.9973 28.8796 20.622 30.5517 22.9238 30.1846C23.1803 30.1432 23.4786 29.9785 23.7925 29.7431L28.9769 34.9273C27.9905 36.0461 27.021 36.8974 26.4289 36.8974ZM29.6696 34.1016L24.5977 29.0298C25.2049 28.4206 25.795 27.6946 26.2013 27.1666L31.1394 32.1046C30.708 32.7467 30.1987 33.4432 29.6696 34.1016Z" fill="white"/>
<path d="M22.4942 10.1196H36.3981C37.6346 10.1196 38.6406 11.2412 38.6406 12.6199V20.045C38.6406 21.4412 37.6135 22.6208 36.3981 22.6208H35.9496V24.7317C35.9496 25.5383 35.5495 26.2473 34.9054 26.5814C34.6704 26.7034 34.4215 26.7634 34.1748 26.7634C33.7738 26.7634 33.3773 26.6059 33.0517 26.2998L29.6386 22.6208H22.4942C21.2577 22.6208 20.2517 21.4992 20.2517 20.1205V12.6199C20.2517 11.2412 21.2577 10.1196 22.4942 10.1196ZM21.1487 20.1205C21.1487 20.9476 21.7524 21.6207 22.4942 21.6207H29.8023C29.8579 21.6207 29.9122 21.6337 29.9633 21.6557C30.0122 21.6352 30.0638 21.6207 30.1189 21.6207H31.1082C31.3557 21.6207 31.5567 21.8447 31.5567 22.1207C31.5567 22.3968 31.3557 22.6208 31.1082 22.6208H31.0298L33.6294 25.5348C34.0048 25.8868 34.3825 25.7498 34.5273 25.6748C34.7812 25.5428 35.0525 25.2257 35.0525 24.7317V22.1207C35.0525 21.8447 35.2535 21.6207 35.501 21.6207H36.3981C37.1273 21.6207 37.7436 20.8991 37.7436 20.045V12.6199C37.7436 11.7928 37.1399 11.1197 36.3981 11.1197H22.4942C21.7524 11.1197 21.1487 11.7928 21.1487 12.6199V20.1205Z" fill="white"/>
<path d="M24.7318 14.4492C23.7417 14.4492 22.9365 15.2544 22.9365 16.2445C22.9365 17.2345 23.7417 18.0397 24.7318 18.0397C25.7219 18.0397 26.5271 17.2345 26.5271 16.2445C26.5271 15.2544 25.7219 14.4492 24.7318 14.4492ZM24.7318 17.1421C24.2368 17.1421 23.8342 16.7395 23.8342 16.2445C23.8342 15.7494 24.2368 15.3468 24.7318 15.3468C25.2268 15.3468 25.6294 15.7494 25.6294 16.2445C25.6294 16.7395 25.2268 17.1421 24.7318 17.1421Z" fill="white"/>
<path d="M29.4437 14.4761C28.4536 14.4761 27.6484 15.2812 27.6484 16.2713C27.6484 17.2614 28.4536 18.0666 29.4437 18.0666C30.4338 18.0666 31.239 17.2614 31.239 16.2713C31.239 15.2812 30.4338 14.4761 29.4437 14.4761ZM29.4437 17.1689C28.9487 17.1689 28.5461 16.7664 28.5461 16.2713C28.5461 15.7763 28.9487 15.3737 29.4437 15.3737C29.9388 15.3737 30.3413 15.7763 30.3413 16.2713C30.3413 16.7664 29.9388 17.1689 29.4437 17.1689Z" fill="white"/>
<path d="M34.1586 14.4492C33.1685 14.4492 32.3633 15.2544 32.3633 16.2445C32.3633 17.2345 33.1685 18.0397 34.1586 18.0397C35.1486 18.0397 35.9538 17.2345 35.9538 16.2445C35.9538 15.2544 35.1486 14.4492 34.1586 14.4492ZM34.1586 17.1421C33.6635 17.1421 33.2609 16.7395 33.2609 16.2445C33.2609 15.7494 33.6635 15.3468 34.1586 15.3468C34.6536 15.3468 35.0562 15.7494 35.0562 16.2445C35.0562 16.7395 34.6536 17.1421 34.1586 17.1421Z" fill="white"/>
</svg>
