<svg width="46" height="46" viewBox="0 0 46 46" fill="none" xmlns="http://www.w3.org/2000/svg">
<circle cx="23" cy="23" r="23" fill="#062E61"/>
<g clip-path="url(#clip0_556_24475)">
<path d="M37.6387 17.4474L33.9858 14.2182V8.38272C33.9858 8.06571 33.7288 7.80875 33.4118 7.80875H27.0406L24.0452 5.04047C23.4091 4.45324 22.4126 4.4533 21.7764 5.04071L18.7812 7.80875H12.41C12.0929 7.80875 11.836 8.06571 11.836 8.38272V14.2262L8.35259 17.4565C8.23542 17.5651 8.16895 17.7176 8.16895 17.8774V35.3061C8.16895 35.6231 8.42591 35.8801 8.74292 35.8801H37.2586C37.5756 35.8801 37.8325 35.6231 37.8325 35.3061V17.8774C37.8325 17.713 37.762 17.5563 37.6387 17.4474ZM33.9858 15.7503L36.3724 17.8602L33.9858 19.8107V15.7503ZM22.5554 5.88393C22.758 5.6968 23.0638 5.69674 23.2663 5.88375L25.3492 7.80875H20.4727L22.5554 5.88393ZM12.9841 8.9567H32.8378V20.749L25.7676 26.527L24.5088 25.3709C23.6486 24.5825 22.3514 24.5831 21.491 25.373L20.152 26.6033L12.9841 20.6595V8.9567ZM11.8362 15.7918V19.7075L9.60691 17.859L11.8362 15.7918ZM9.3169 34.7322V19.1098L19.2988 27.3871L18.4757 28.1433L11.3019 34.7322H9.3169ZM12.999 34.7322L19.2524 28.9887L22.2675 26.2185C22.6854 25.8349 23.3154 25.8344 23.7327 26.2169L33.0043 34.7322H12.999ZM36.6845 34.7322H34.7014L26.6217 27.3116L36.6845 19.0878V34.7322Z" fill="white"/>
<path d="M30.9086 12.1392H27.947C27.63 12.1392 27.373 12.3962 27.373 12.7131C27.373 13.0301 27.63 13.2871 27.947 13.2871H30.9086C31.2256 13.2871 31.4826 13.0302 31.4826 12.7131C31.4826 12.3961 31.2256 12.1392 30.9086 12.1392Z" fill="white"/>
<path d="M24.7156 12.1392H14.9119C14.5949 12.1392 14.3379 12.3962 14.3379 12.7131C14.3379 13.0301 14.5949 13.2871 14.9119 13.2871H24.7155C25.0325 13.2871 25.2895 13.0302 25.2895 12.7131C25.2895 12.3961 25.0325 12.1392 24.7156 12.1392Z" fill="white"/>
<path d="M30.9082 14.7217H22.9656C22.6486 14.7217 22.3916 14.9786 22.3916 15.2957C22.3916 15.6127 22.6486 15.8696 22.9656 15.8696H30.9081C31.2251 15.8696 31.4821 15.6127 31.4821 15.2957C31.4821 14.9786 31.2252 14.7217 30.9082 14.7217Z" fill="white"/>
<path d="M20.0038 14.7217H14.9119C14.5949 14.7217 14.3379 14.9786 14.3379 15.2957C14.3379 15.6127 14.5949 15.8696 14.9119 15.8696H20.0038C20.3208 15.8696 20.5778 15.6127 20.5778 15.2957C20.5778 14.9786 20.3208 14.7217 20.0038 14.7217Z" fill="white"/>
<path d="M30.9086 17.502H27.947C27.63 17.502 27.373 17.7589 27.373 18.0759C27.373 18.3929 27.63 18.6499 27.947 18.6499H30.9086C31.2256 18.6499 31.4826 18.3929 31.4826 18.0759C31.4826 17.759 31.2256 17.502 30.9086 17.502Z" fill="white"/>
<path d="M24.7156 17.502H14.9119C14.5949 17.502 14.3379 17.7589 14.3379 18.0759C14.3379 18.3929 14.5949 18.6499 14.9119 18.6499H24.7155C25.0325 18.6499 25.2895 18.3929 25.2895 18.0759C25.2895 17.759 25.0325 17.502 24.7156 17.502Z" fill="white"/>
<path d="M30.9082 20.084H22.9656C22.6486 20.084 22.3916 20.3409 22.3916 20.658C22.3916 20.975 22.6486 21.2319 22.9656 21.2319H30.9081C31.2251 21.2319 31.4821 20.975 31.4821 20.658C31.4821 20.3409 31.2252 20.084 30.9082 20.084Z" fill="white"/>
<path d="M20.0038 20.084H14.9119C14.5949 20.084 14.3379 20.3409 14.3379 20.658C14.3379 20.975 14.5949 21.2319 14.9119 21.2319H20.0038C20.3208 21.2319 20.5778 20.975 20.5778 20.658C20.5778 20.3409 20.3208 20.084 20.0038 20.084Z" fill="white"/>
</g>
<defs>
<clipPath id="clip0_556_24475">
<rect width="31.28" height="31.28" fill="white" transform="translate(7.36035 4.6001)"/>
</clipPath>
</defs>
</svg>
