<svg width="46" height="46" viewBox="0 0 46 46" fill="none" xmlns="http://www.w3.org/2000/svg">
<circle cx="23" cy="23" r="23" fill="#062E61"/>
<path d="M8.04914 37.3751C7.95771 37.3754 7.86755 37.3538 7.78612 37.3122C7.7047 37.2706 7.63436 37.2102 7.58096 37.136C7.52755 37.0618 7.49261 36.9759 7.47903 36.8855C7.46545 36.7951 7.47363 36.7027 7.50289 36.6161L9.77414 29.9346C7.98727 26.962 7.24321 23.4782 7.65982 20.0349C8.07642 16.5917 9.62988 13.3858 12.0741 10.9251C14.9761 8.03605 18.9043 6.41406 22.9991 6.41406C27.094 6.41406 31.0222 8.03605 33.9241 10.9251C36.4822 13.52 38.0437 16.9336 38.334 20.5659C38.6243 24.1981 37.6249 27.8164 35.5115 30.7847C33.3981 33.7529 30.3059 35.8812 26.7786 36.7952C23.2513 37.7093 19.5147 37.3507 16.2256 35.7824L8.16414 37.3751H8.04914ZM16.3004 34.5864C16.3904 34.5869 16.479 34.6086 16.5591 34.6496C19.6013 36.167 23.0835 36.5543 26.3848 35.7425C29.686 34.9306 32.5914 32.9724 34.5827 30.2171C36.5741 27.4618 37.5218 24.0887 37.2569 20.6994C36.992 17.3102 35.5317 14.1253 33.1364 11.7129C31.8053 10.3815 30.2249 9.3253 28.4855 8.60472C26.7461 7.88415 24.8819 7.51327 22.9991 7.51327C21.1164 7.51327 19.2522 7.88415 17.5128 8.60472C15.7734 9.3253 14.193 10.3815 12.8619 11.7129C10.5717 14.0271 9.13199 17.0481 8.77703 20.2846C8.42206 23.521 9.17273 26.7823 10.9069 29.5379C10.9529 29.6107 10.982 29.693 10.9919 29.7786C11.0019 29.8642 10.9925 29.9509 10.9644 30.0324L8.91739 36.0641L16.1969 34.6151L16.3004 34.5864Z" fill="white"/>
<path d="M27.1226 29.9003C26.9464 29.9099 26.7698 29.9099 26.5936 29.9003C23.5404 29.5668 19.6936 26.5481 18.6069 25.4843C17.5431 24.4206 14.5186 20.5508 14.1909 17.4976C13.9264 15.0596 15.5536 13.4036 16.2666 12.7998C16.5855 12.5259 16.9968 12.384 17.4166 12.4031L18.9691 12.4548C19.0827 12.459 19.1924 12.4968 19.2845 12.5633C19.3766 12.6298 19.447 12.7221 19.4866 12.8286C19.8316 13.7428 20.9471 16.7846 20.9471 17.5723C20.9471 18.2623 20.3376 18.7971 19.7971 19.2686C19.6821 19.3663 19.5269 19.5043 19.4349 19.6021C20.016 20.6641 20.7121 21.6591 21.5106 22.5691C22.4207 23.3675 23.4157 24.0635 24.4776 24.6448C24.5754 24.5471 24.7134 24.3918 24.8111 24.2826C25.2826 23.7421 25.8174 23.1326 26.5361 23.1326C27.3239 23.1326 30.3656 24.2481 31.2799 24.5931C31.3863 24.6327 31.4787 24.7031 31.5452 24.7952C31.6117 24.8873 31.6494 24.997 31.6536 25.1106L31.7054 26.6631C31.7172 27.0819 31.5762 27.4906 31.3086 27.8131C30.8005 28.4398 30.164 28.9505 29.4419 29.3105C28.7199 29.6706 27.929 29.8717 27.1226 29.9003ZM19.4234 24.6563C20.3721 25.6051 24.0234 28.4513 26.7201 28.7446C28.6119 28.9458 29.9344 27.6406 30.4174 27.0713C30.5036 26.964 30.5485 26.8294 30.5439 26.6918L30.5036 25.5418C29.2111 25.0235 27.8809 24.6044 26.5246 24.2883C26.3406 24.2883 25.8864 24.8231 25.6909 25.0473C25.2999 25.4958 24.9894 25.8466 24.5409 25.8466C23.8106 25.8466 21.2634 23.9606 20.6941 23.3913C20.1249 22.8221 18.2561 20.2576 18.2561 19.5503C18.2561 19.1191 18.6069 18.8086 19.0554 18.4003C19.2739 18.2048 19.7971 17.7563 19.8144 17.5666C19.4982 16.2103 19.0791 14.8801 18.5609 13.5876L17.4109 13.5473C17.2733 13.5427 17.1387 13.5876 17.0314 13.6738C16.4564 14.1568 15.1511 15.4793 15.3581 17.3653C15.6514 20.0793 18.4976 23.6903 19.4464 24.6621L19.4234 24.6563Z" fill="white"/>
</svg>
