<svg width="30" height="30" viewBox="0 0 30 30" fill="none" xmlns="http://www.w3.org/2000/svg">
<path d="M0.833984 29.1673V20.0007H3.33398V24.9111L8.91732 19.3277L10.6736 21.084L5.09023 26.6673H10.0007V29.1673H0.833984ZM20.0007 29.1673V26.6673H24.9111L19.3277 21.084L21.084 19.3277L26.6673 24.9111V20.0007H29.1673V29.1673H20.0007ZM8.91732 10.6736L3.33398 5.09024V10.0007H0.833984V0.833984H10.0007V3.33398H5.09023L10.6736 8.91732L8.91732 10.6736ZM21.084 10.6736L19.3277 8.91732L24.9111 3.33398H20.0007V0.833984H29.1673V10.0007H26.6673V5.09024L21.084 10.6736ZM15.0007 17.7732C14.2382 17.7732 13.5855 17.5016 13.0427 16.9586C12.4997 16.4158 12.2282 15.7632 12.2282 15.0007C12.2282 14.2382 12.4997 13.5855 13.0427 13.0427C13.5855 12.4997 14.2382 12.2282 15.0007 12.2282C15.7632 12.2282 16.4158 12.4997 16.9586 13.0427C17.5016 13.5855 17.7732 14.2382 17.7732 15.0007C17.7732 15.7632 17.5016 16.4158 16.9586 16.9586C16.4158 17.5016 15.7632 17.7732 15.0007 17.7732Z" fill="#1C1B1F"/>
</svg>
