<svg width="20" height="16" viewBox="0 0 20 16" fill="none" xmlns="http://www.w3.org/2000/svg">
<path d="M16.6667 13.5555V14.1111C16.6667 15.0315 15.9205 15.7777 15 15.7777H1.66667C0.746181 15.7777 0 15.0315 0 14.1111V5.22217C0 4.30168 0.746181 3.5555 1.66667 3.5555H2.22222V5.22217H1.875C1.81975 5.22217 1.76676 5.24412 1.72769 5.28319C1.68862 5.32226 1.66667 5.37525 1.66667 5.4305V13.9027C1.66667 13.958 1.68862 14.011 1.72769 14.05C1.76676 14.0891 1.81975 14.1111 1.875 14.1111H14.7917C14.8469 14.1111 14.8999 14.0891 14.939 14.05C14.9781 14.011 15 13.958 15 13.9027V13.5555H16.6667ZM18.125 1.88883H5.20833C5.15308 1.88883 5.10009 1.91078 5.06102 1.94985C5.02195 1.98892 5 2.04191 5 2.09717V10.5694C5 10.6246 5.02195 10.6776 5.06102 10.7167C5.10009 10.7558 5.15308 10.7777 5.20833 10.7777H18.125C18.1803 10.7777 18.2332 10.7558 18.2723 10.7167C18.3114 10.6776 18.3333 10.6246 18.3333 10.5694V2.09717C18.3333 2.04191 18.3114 1.98892 18.2723 1.94985C18.2332 1.91078 18.1803 1.88883 18.125 1.88883ZM18.3333 0.222168C19.2538 0.222168 20 0.968348 20 1.88883V10.7777C20 11.6982 19.2538 12.4444 18.3333 12.4444H5C4.07951 12.4444 3.33333 11.6982 3.33333 10.7777V1.88883C3.33333 0.968348 4.07951 0.222168 5 0.222168H18.3333ZM9.16667 4.11106C9.16667 4.87811 8.54483 5.49995 7.77778 5.49995C7.01073 5.49995 6.38889 4.87811 6.38889 4.11106C6.38889 3.34401 7.01073 2.72217 7.77778 2.72217C8.54483 2.72217 9.16667 3.34401 9.16667 4.11106ZM6.66667 7.44439L8.03872 6.07234C8.20142 5.90963 8.46524 5.90963 8.62799 6.07234L10 7.44439L13.5943 3.85012C13.757 3.68741 14.0208 3.68741 14.1835 3.85012L16.6667 6.33328V9.11106H6.66667V7.44439Z" fill="white"/>
</svg>
