<svg width="46" height="47" viewBox="0 0 46 47" fill="none" xmlns="http://www.w3.org/2000/svg">
<circle cx="23" cy="23.0928" r="23" fill="#062E61"/>
<g clip-path="url(#clip0_556_24508)">
<path d="M23.0006 35.1689L31.1244 27.0451C31.2754 26.9012 31.6052 26.5596 31.6193 26.5449L31.6259 26.5379C33.6673 24.3483 34.7915 21.4937 34.7915 18.4998C34.7915 11.9983 29.5022 6.70898 23.0008 6.70898C16.4993 6.70898 11.21 11.9983 11.21 18.4998C11.21 21.4937 12.3342 24.3484 14.3755 26.5379L23.0006 35.1689ZM23.0008 7.8429C28.8769 7.8429 33.6577 12.6236 33.6577 18.4998C33.6577 21.204 32.6427 23.7827 30.7999 25.7612C30.7042 25.8603 30.4449 26.1268 30.3381 26.2282L23.0009 33.565L15.1984 25.7576C13.3574 23.7796 12.3438 21.2026 12.3438 18.4998C12.3438 12.6236 17.1244 7.8429 23.0008 7.8429Z" fill="white"/>
<path d="M24.8179 10.6788C26.8525 10.6788 30.8123 12.9036 30.8123 16.9818C30.8123 17.2949 31.066 17.5487 31.3792 17.5487C31.6923 17.5487 31.9462 17.2949 31.9462 16.9818C31.9462 14.859 31.008 12.8909 29.3046 11.44C27.9529 10.2888 26.1918 9.54492 24.8179 9.54492C24.5049 9.54492 24.251 9.79873 24.251 10.1119C24.251 10.425 24.5049 10.6788 24.8179 10.6788Z" fill="white"/>
<path d="M30.1168 31.577C29.6752 31.3965 29.1995 31.2357 28.6976 31.0938L27.7689 32.0225C30.5061 32.6758 32.1938 33.8403 32.1938 34.9224C32.1938 36.5409 28.4187 38.3443 23.0013 38.3443C17.584 38.3443 13.8087 36.5409 13.8087 34.9224C13.8087 33.8404 15.4964 32.6758 18.2337 32.0225L17.3049 31.0938C16.8031 31.2357 16.3274 31.3965 15.8858 31.577C13.8152 32.4233 12.6748 33.6114 12.6748 34.9224C12.6748 36.2334 13.8152 37.4214 15.8858 38.2677C17.7956 39.0483 20.3226 39.4782 23.0013 39.4782C25.68 39.4782 28.207 39.0483 30.1168 38.2677C32.1875 37.4214 33.3277 36.2334 33.3277 34.9224C33.3277 33.6114 32.1875 32.4233 30.1168 31.577Z" fill="white"/>
<path d="M23.0333 23.9256C19.8837 23.9256 17.3213 21.3633 17.3213 18.2138C17.3213 15.0643 19.8837 12.502 23.0333 12.502C26.1828 12.502 28.7453 15.0643 28.7453 18.2138C28.7453 21.3633 26.1828 23.9256 23.0333 23.9256ZM23.0333 13.6359C20.5089 13.6359 18.4552 15.6895 18.4552 18.2138C18.4552 20.7381 20.5089 22.7917 23.0333 22.7917C25.5576 22.7917 27.6114 20.7381 27.6114 18.2138C27.6114 15.6895 25.5576 13.6359 23.0333 13.6359Z" fill="white"/>
</g>
<defs>
<clipPath id="clip0_556_24508">
<rect width="33.12" height="33.12" fill="white" transform="translate(6.44043 6.5332)"/>
</clipPath>
</defs>
</svg>
