<svg width="100" height="100" viewBox="0 0 100 100" fill="none" xmlns="http://www.w3.org/2000/svg">
<path d="M45.3053 13.3535C22.473 13.3535 3.96387 31.8627 3.96387 54.6949C3.96387 77.5272 22.473 96.0363 45.3053 96.0363L47.5576 54.6949L45.3053 13.3535Z" fill="#F4F4F7"/>
<path d="M86.6461 54.6949C86.6461 31.8627 68.1369 13.3535 45.3047 13.3535V96.0363C68.1371 96.0363 86.6461 77.5272 86.6461 54.6949Z" fill="#E2E2EB"/>
<path d="M45.3047 25.209C29.0203 25.209 15.8193 38.41 15.8193 54.6943C15.8193 70.9787 29.0203 84.1797 45.3047 84.1797L46.9111 54.6943L45.3047 25.209Z" fill="#FFD748"/>
<path d="M74.79 54.6943C74.79 38.41 61.5891 25.209 45.3047 25.209V84.1799C61.5889 84.1797 74.79 70.9787 74.79 54.6943Z" fill="#FFC335"/>
<path d="M45.3051 41.0234C37.7541 41.0234 31.6328 47.1447 31.6328 54.6957C31.6328 62.2467 37.7541 68.368 45.3051 68.368L46.05 54.6957L45.3051 41.0234Z" fill="#FF4C70"/>
<path d="M58.9769 54.6957C58.9769 47.1447 52.8557 41.0234 45.3047 41.0234V68.3682C52.8557 68.368 58.9769 62.2467 58.9769 54.6957Z" fill="#F21544"/>
<path d="M5.85938 54.6955C5.85938 32.9451 23.5547 15.25 45.3051 15.25L47.2584 12.3203L45.3051 9.39062C33.2037 9.39062 21.8266 14.1031 13.2695 22.6602C4.7125 31.217 0 42.5941 0 54.6955C0 66.7969 4.7125 78.174 13.2693 86.7309C21.8266 95.2879 33.2037 100 45.3051 100L47.2584 97.0707L45.3051 94.141C23.5547 94.141 5.85938 76.4459 5.85938 54.6955Z" fill="#FFD748"/>
<path d="M77.34 22.6602C68.783 14.1031 57.4061 9.39062 45.3047 9.39062V15.25C67.0549 15.25 84.7502 32.9451 84.7502 54.6955C84.7502 76.4459 67.0549 94.141 45.3047 94.141V100C57.4061 100 68.7832 95.2879 77.34 86.7309C85.8969 78.1738 90.6094 66.7969 90.6094 54.6955C90.6094 42.5941 85.8971 31.217 77.34 22.6602Z" fill="#FFC335"/>
<path d="M87.9952 12.0044L87.095 3.02592C87.0396 2.47419 86.8288 1.9495 86.4871 1.51283C86.1454 1.07615 85.6867 0.745418 85.1645 0.559069C84.6422 0.372721 84.0778 0.338408 83.5368 0.460117C82.9959 0.581827 82.5005 0.854561 82.1084 1.24662L66.5602 16.7951C66.2532 17.1019 66.0183 17.4732 65.8724 17.8821C65.7266 18.2909 65.6734 18.727 65.7168 19.1589L66.8561 30.5212C66.9231 31.194 67.2212 31.8227 67.6994 32.3005L80.992 23.1513L87.9952 12.0044Z" fill="#0EB9FF"/>
<path d="M96.9736 12.9041L87.9951 12.0039L67.6992 32.3C68.177 32.7785 68.8059 33.0766 69.4787 33.1436L80.8408 34.2828C81.2727 34.3261 81.7088 34.2729 82.1175 34.127C82.5263 33.9812 82.8976 33.7463 83.2045 33.4395L98.7529 17.891C99.1451 17.4989 99.4179 17.0036 99.5397 16.4625C99.6615 15.9215 99.6272 15.357 99.4409 14.8347C99.2545 14.3124 98.9237 13.8537 98.487 13.5119C98.0502 13.1702 97.5254 12.9594 96.9736 12.9041Z" fill="#17A9FF"/>
<path d="M99.1415 0.858105C97.9976 -0.286035 96.1425 -0.286035 94.9983 0.858105L43.2331 52.6233C42.089 53.7675 42.089 55.6224 43.2331 56.7665L73.2181 29.2413L99.1415 0.858105Z" fill="#015283"/>
<path d="M43.2334 56.7658C43.8055 57.3379 44.5553 57.624 45.3051 57.624C46.0549 57.624 46.8047 57.3379 47.3766 56.766L99.1418 5.00059C100.286 3.85645 100.286 2.00156 99.1418 0.857422L43.2334 56.7658Z" fill="#003E67"/>
</svg>
