<svg width="100" height="100" viewBox="0 0 100 100" fill="none" xmlns="http://www.w3.org/2000/svg">
<path d="M99.2384 11.8166C98.7501 11.4064 98.0665 11.3283 97.5001 11.6213C92.715 14.1017 87.9298 16.6017 83.1446 19.1017C78.7696 21.3869 67.3243 27.3244 63.1056 29.5314C59.3165 18.2424 48.3399 10.7424 36.2696 11.5041C13.3595 13.008 2.91026 41.6408 19.8048 57.3244C23.2228 60.508 25.1368 64.6681 25.2345 69.0627C21.7189 70.4884 20.9181 75.6252 23.6915 78.0861C20.1173 81.4259 22.6173 87.6955 27.5587 87.6369H28.8673V90.0392C28.8673 93.1056 31.3673 95.6056 34.4337 95.6056H36.8556C38.047 97.7541 41.2501 98.9064 43.2814 99.4338C47.0118 100.488 50.4884 99.4728 54.0821 98.633C59.1603 97.5002 63.2032 97.3634 66.172 97.2658C69.629 97.1486 71.9142 97.0509 72.3439 94.9416C72.6954 93.1252 70.9962 92.0119 69.3556 90.9377C67.3243 89.5509 64.8829 88.1252 67.09 86.0939C67.8126 85.2736 68.7892 84.1603 68.8673 82.383C68.965 80.2541 67.5978 78.9455 66.3868 77.7931C63.3595 75.2736 62.5196 71.9533 63.711 67.5783L74.4142 57.4611L84.0821 59.3556C84.8634 59.5119 85.6642 59.0431 85.879 58.2814L99.7267 13.4963C99.922 12.8908 99.7267 12.2267 99.2384 11.8166ZM21.9728 55.0197C7.08995 41.1916 16.2892 15.9572 36.4649 14.6486C47.3048 13.965 57.1095 20.7814 60.2931 30.9963C49.59 36.5627 37.9884 42.6174 27.2657 48.1838L49.629 52.5783C50.0001 53.0666 52.129 55.8791 52.5392 56.4259C49.5509 59.6486 47.7735 63.9455 47.5587 68.5158H28.3985C28.1446 63.4572 25.879 58.6916 21.9728 55.0197ZM25.8595 72.383C26.3087 71.9338 26.9337 71.6799 27.5587 71.6799H48.379C51.5626 71.7384 51.5431 76.465 48.3985 76.5041H27.5782C25.4689 76.5627 24.3165 73.8088 25.8595 72.383ZM27.5587 84.4728C24.3946 84.3947 24.3751 79.7463 27.5392 79.6486H48.3595C51.5431 79.7463 51.5431 84.3947 48.3595 84.4728H27.5587ZM34.4337 92.4611C33.1056 92.4611 32.0118 91.3869 32.0118 90.0392V87.6174H43.9064V90.0392C43.9064 91.3674 42.8321 92.4611 41.4845 92.4611H34.4337ZM64.2189 80.0783C66.1134 81.8166 66.172 82.3634 64.7267 84.0236C60.7618 88.2033 64.4532 91.7775 68.2814 94.0041C63.672 94.2775 60.0782 94.1213 53.3985 95.5666C49.4923 96.6017 45.4103 97.4611 41.7384 95.5861C44.6876 95.4689 47.0704 93.0275 47.0704 90.0392V87.6174H48.379C53.3204 87.6759 55.8204 81.4064 52.2462 78.0666C55.0978 75.547 54.1407 70.4494 50.7228 69.0431C50.8204 65.2736 52.1681 61.6994 54.5118 58.9845L60.6251 67.09C59.1603 72.3049 60.6251 77.09 64.2189 80.0783ZM63.5353 53.0666C63.4962 53.1642 63.4181 53.2619 63.379 53.3791C63.3595 53.4181 63.3399 53.4767 63.3399 53.4963L63.2814 53.672L61.4454 62.9884C59.1993 60.0197 55.0001 54.4533 52.7735 51.5431L74.7267 36.8361L75.1173 36.5627C71.8751 41.172 66.8556 48.3595 63.5353 53.0666ZM64.8243 62.2072L66.0743 55.8205C66.2696 55.84 70.3126 56.6408 70.6251 56.7189L64.8243 62.2072ZM83.3009 55.9963L67.7931 52.9494L67.5001 52.8908C72.5196 45.7424 77.5587 38.5939 82.5782 31.4455C83.0079 30.84 82.9493 29.9611 82.4025 29.4533C82.3829 29.4533 82.3829 29.4533 82.3829 29.4338C81.8556 28.9259 80.9962 28.8283 80.3712 29.2384L50.1759 49.4728L36.6993 46.8361C55.9962 36.7775 76.3087 26.2306 95.6056 16.172L83.3009 55.9963Z" fill="#231F20"/>
<path d="M50.215 53.3401L52.5392 56.426C49.551 59.6487 47.7736 63.9456 47.5588 68.5159H28.3986C28.1447 63.4573 25.8791 58.6917 21.9728 55.0198C7.09003 41.2112 16.2892 15.9573 36.465 14.6487C47.3049 13.9651 57.1096 20.7815 60.2932 30.9963C49.59 36.5628 37.9885 42.6174 27.2658 48.1838L49.6291 52.5784L50.215 53.3401Z" fill="#FFE187"/>
<path d="M70.625 56.7187L64.8242 62.2266L66.0742 55.8398C66.25 55.8398 70.293 56.6406 70.625 56.7187ZM75.1367 36.543C71.875 41.1719 66.8359 48.3594 63.5352 53.0469C63.4961 53.1445 63.418 53.2422 63.3789 53.3594C63.3594 53.3984 63.3398 53.457 63.3398 53.4766L63.2812 53.6523L61.4453 62.9687C59.1992 60 55 54.4336 52.7734 51.5234L74.7266 36.8164L75.1367 36.543Z" fill="#E5CFBD"/>
<path d="M50.7812 74.082C50.8203 75.4102 49.6484 76.5234 48.3594 76.5039H27.5391C24.3555 76.4258 24.3555 71.7773 27.5391 71.6797H48.3594C49.707 71.6797 50.7812 72.7539 50.7812 74.082ZM50.7812 82.0703C50.7812 83.3984 49.6875 84.4922 48.3594 84.4922H27.5586C26.2305 84.4922 25.1367 83.418 25.1367 82.0703C25.1367 80.7422 26.2109 79.668 27.5391 79.6484H48.3594C49.707 79.6484 50.7812 80.7422 50.7812 82.0703Z" fill="#F4644D"/>
<path d="M43.9063 87.6367V90.0391C43.9063 91.3672 42.832 92.4609 41.4844 92.4609H34.4336C33.1055 92.4609 32.0117 91.3867 32.0117 90.0391V87.6172H43.9063V87.6367Z" fill="#6BD4E0"/>
<path d="M95.625 16.1523L83.3008 55.9961L67.793 52.9492L67.5 52.8906C72.5195 45.7422 77.5586 38.5938 82.5781 31.4453C83.0078 30.8398 82.9492 29.9609 82.4023 29.4531C82.3828 29.4531 82.3828 29.4531 82.3828 29.4336C81.8555 28.9258 80.9961 28.8281 80.3711 29.2383L50.1758 49.4727L36.6992 46.8359C55.9961 36.7578 76.3086 26.2305 95.625 16.1523Z" fill="#EFEAE6"/>
<path d="M12.3633 65.0586C12.7734 65.0586 13.1641 64.9023 13.4766 64.5898L16.9727 61.0937C17.5977 60.4883 17.5977 59.4727 16.9727 58.8672C16.3477 58.2617 15.3516 58.2617 14.7461 58.8672L11.25 62.3633C10.2344 63.3008 11.0156 65.0977 12.3633 65.0586ZM62.4805 11.1523L58.9844 14.6484C57.5391 16.1328 59.7266 18.3203 61.2109 16.875L64.707 13.3789C66.1328 11.8945 63.9648 9.72656 62.4805 11.1523ZM1.73828 36.3086C-0.332031 36.3477 -0.332031 39.4141 1.73828 39.4531H6.69922C7.57812 39.4531 8.28125 38.75 8.28125 37.8711C8.28125 36.9922 7.57812 36.2891 6.69922 36.2891H1.73828V36.3086ZM13.4766 11.1523C11.9922 9.70703 9.80469 11.8945 11.25 13.3789L14.7461 16.875C16.2305 18.3203 18.418 16.1328 16.9727 14.6484C16.9727 14.668 13.4766 11.1523 13.4766 11.1523ZM36.4062 1.66016V6.62109C36.4062 7.5 37.1094 8.20312 37.9883 8.20312C38.8672 8.20312 39.5703 7.5 39.5703 6.62109V1.66016C39.5117 -0.410156 36.4258 -0.410156 36.4062 1.66016Z" fill="#231F20"/>
</svg>
