<svg width="46" height="46" viewBox="0 0 46 46" fill="none" xmlns="http://www.w3.org/2000/svg">
<path d="M4.3124 42.4062C4.19812 42.4065 4.08541 42.3796 3.98363 42.3276C3.88185 42.2756 3.79393 42.2001 3.72717 42.1073C3.66041 42.0146 3.61674 41.9072 3.59977 41.7942C3.58279 41.6812 3.59302 41.5658 3.62959 41.4575L6.46865 33.1056C4.23506 29.3898 3.30499 25.035 3.82575 20.731C4.34651 16.4269 6.28832 12.4196 9.34365 9.34375C12.9711 5.73241 17.8813 3.70493 22.9999 3.70493C28.1185 3.70493 33.0287 5.73241 36.6562 9.34375C39.8538 12.5874 41.8056 16.8544 42.1685 21.3947C42.5314 25.9349 41.2821 30.4578 38.6403 34.1682C35.9986 37.8785 32.1333 40.5388 27.7242 41.6814C23.3151 42.824 18.6443 42.3757 14.533 40.4153L4.45615 42.4062H4.3124ZM14.6265 38.9203C14.739 38.921 14.8498 38.9481 14.9499 38.9994C18.7526 40.8961 23.1054 41.3803 27.2319 40.3654C31.3584 39.3506 34.9902 36.9028 37.4794 33.4587C39.9686 30.0146 41.1533 25.7982 40.8221 21.5616C40.491 17.3251 38.6656 13.344 35.6715 10.3284C34.0075 8.66416 32.0321 7.34397 29.8579 6.44325C27.6836 5.54253 25.3533 5.07894 22.9999 5.07894C20.6465 5.07894 18.3162 5.54253 16.142 6.44325C13.9678 7.34397 11.9923 8.66416 10.3283 10.3284C7.46559 13.2212 5.66597 16.9975 5.22226 21.0431C4.77856 25.0886 5.71689 29.1652 7.88459 32.6097C7.94212 32.7007 7.97845 32.8036 7.99089 32.9106C8.00333 33.0176 7.99157 33.126 7.95647 33.2278L5.39772 40.7675L14.4971 38.9562L14.6265 38.9203Z" fill="#1554A3"/>
<path d="M28.1538 33.0626C27.9335 33.0746 27.7128 33.0746 27.4925 33.0626C23.676 32.6458 18.8675 28.8723 17.5091 27.5426C16.1794 26.213 12.3988 21.3758 11.9891 17.5592C11.6585 14.5117 13.6925 12.4417 14.5838 11.687C14.9823 11.3447 15.4964 11.1673 16.0213 11.1911L17.9619 11.2558C18.1038 11.261 18.241 11.3082 18.3561 11.3913C18.4713 11.4745 18.5592 11.5899 18.6088 11.723C19.04 12.8658 20.4344 16.668 20.4344 17.6526C20.4344 18.5151 19.6725 19.1836 18.9969 19.773C18.8532 19.8951 18.6591 20.0676 18.5441 20.1898C19.2705 21.5174 20.1407 22.7611 21.1388 23.8986C22.2764 24.8966 23.5201 25.7667 24.8475 26.4933C24.9697 26.3711 25.1422 26.177 25.2644 26.0405C25.8538 25.3648 26.5222 24.603 27.4207 24.603C28.4053 24.603 32.2075 25.9973 33.3503 26.4286C33.4834 26.4782 33.5988 26.5661 33.682 26.6812C33.7651 26.7964 33.8123 26.9335 33.8175 27.0755L33.8822 29.0161C33.897 29.5396 33.7207 30.0505 33.3863 30.4536C32.7512 31.2371 31.9555 31.8753 31.0529 32.3254C30.1503 32.7755 29.1617 33.0269 28.1538 33.0626ZM18.5297 26.5076C19.7157 27.6936 24.2797 31.2514 27.6507 31.618C30.0154 31.8695 31.6685 30.238 32.2722 29.5264C32.38 29.3923 32.4361 29.224 32.4303 29.052L32.38 27.6145C30.7643 26.9666 29.1016 26.4428 27.4063 26.0476C27.1763 26.0476 26.6085 26.7161 26.3641 26.9964C25.8753 27.557 25.4872 27.9955 24.9266 27.9955C24.0138 27.9955 20.8297 25.638 20.1182 24.9264C19.4066 24.2148 17.0707 21.0092 17.0707 20.1251C17.0707 19.5861 17.5091 19.198 18.0697 18.6876C18.3428 18.4433 18.9969 17.8826 19.0185 17.6455C18.6232 15.9502 18.0994 14.2874 17.4516 12.6717L16.0141 12.6214C15.8421 12.6156 15.6738 12.6717 15.5397 12.7795C14.821 13.3833 13.1894 15.0364 13.4482 17.3939C13.8147 20.7864 17.3725 25.3001 18.5585 26.5148L18.5297 26.5076Z" fill="#1554A3"/>
</svg>
