<svg width="110" height="110" viewBox="0 0 110 110" fill="none" xmlns="http://www.w3.org/2000/svg">
<path d="M55 11C30.7001 11 11 30.7001 11 55C11 79.2999 30.7001 99 55 99C79.2999 99 99 79.2999 99 55C99 30.7001 79.2999 11 55 11ZM96.1388 55C96.1388 77.7192 77.7218 96.1388 55 96.1388C32.2782 96.1388 13.8612 77.7192 13.8612 55C13.8612 32.2808 32.2808 13.8612 55 13.8612C77.7192 13.8612 96.1388 32.2808 96.1388 55Z" fill="#6F6F6F"/>
<path d="M54.9999 28.926V30.3556C68.5875 30.3556 79.6443 41.4098 79.6443 55.0001H81.0739C81.0739 40.6007 69.3993 28.926 54.9999 28.926ZM54.9999 79.6446C41.4122 79.6446 30.3554 68.5904 30.3554 55.0001H28.9258C28.9258 69.3995 40.6004 81.0742 54.9999 81.0742" fill="#6F6F6F"/>
<path d="M76.0677 36.4323C76.6647 37.0689 77.5254 38.0956 78.0087 38.7193L86.9102 33.1083C86.4656 32.5307 85.7575 31.6529 85.2276 31.0343L79.5905 34.7356L79.2054 35.0642L79.4923 34.6484L81.9813 29.7149L80.2212 27.9669L75.2509 30.4388L74.8322 30.7237L75.1656 30.3413L78.8953 24.7456C78.2388 24.1912 77.6081 23.6829 76.8043 23.0669L71.1543 31.8993C71.8702 32.446 72.8136 33.2495 73.4158 33.7962L78.735 31.0548L79.0762 30.8058L78.8255 31.1447L76.0677 36.4323Z" fill="#6F6F6F"/>
<path d="M55.8688 25.2386L58.301 19.8278L58.4561 19.3478L58.4121 19.8483L58.668 27.079C59.5209 27.1586 60.4023 27.2767 61.2707 27.4204L60.8753 16.7117C59.6605 16.5782 58.4509 16.4832 57.2413 16.4319L54.8453 22.3381L54.76 22.7771L54.6747 22.3381L52.2814 16.4319C51.0718 16.4832 49.8622 16.5782 48.6474 16.7117L48.252 27.4204C49.1204 27.2767 50.0017 27.1612 50.8547 27.079L51.1105 19.8483L51.0666 19.3478L51.2217 19.8278L53.6538 25.2386H55.8688Z" fill="#6F6F6F"/>
<path d="M36.197 33.7733C37.603 32.3025 38.3991 30.6032 36.9931 28.981C36.228 28.1006 34.9435 27.9081 33.8786 28.3419L33.7726 28.3829L33.8062 28.2905C33.9639 27.8721 34.0647 26.5374 32.9197 25.6159C32.3614 25.1667 31.661 24.9999 30.9528 25.0717C29.6321 25.2052 28.6163 26.101 25.8507 29.1633C25.0159 30.0873 23.8011 31.5453 23.0723 32.4898L30.6685 39.6461C33.1859 36.8791 34.212 35.8498 36.197 33.7733ZM26.285 32.0227C27.8151 30.1643 29.4408 28.4779 30.1774 27.8105C30.41 27.6001 30.6633 27.3896 30.9709 27.3074C31.4697 27.1714 31.9841 27.5231 32.1004 28.0313C32.2167 28.5421 31.8936 29.0272 31.5343 29.4276C30.7253 30.3337 27.7582 33.4165 27.7582 33.4165L26.285 32.0227ZM29.2599 34.8256C29.2599 34.8256 32.1495 31.7917 33.0929 30.8214C33.4676 30.4364 33.708 30.2028 33.9665 30.077C34.2999 29.9153 34.6643 29.882 34.99 30.0976C35.3105 30.3106 35.4578 30.6777 35.3777 31.0422C35.282 31.476 34.9254 31.8892 34.6307 32.2049C34.2327 32.6285 30.8055 36.2708 30.8003 36.2759L29.2599 34.8256Z" fill="#6F6F6F"/>
<path d="M54.9999 28.926V55.0001H28.9258C28.9258 40.5903 40.5901 28.926 54.9999 28.926Z" fill="#0066B1"/>
<path d="M81.0741 55C81.0741 69.4098 69.4098 81.0741 55 81.0741V55H81.0741Z" fill="#0066B1"/>
</svg>
