<svg width="119" height="119" viewBox="0 0 119 119" fill="none" xmlns="http://www.w3.org/2000/svg">
<path fill-rule="evenodd" clip-rule="evenodd" d="M37.4841 14.9915L38.5747 14.8384L40.7557 14.5316L41.8462 14.3782L42.9368 14.2252L44.0275 14.0718L45.118 13.9187L46.2087 13.7653L47.2993 13.6123L50.5709 13.1521L51.6616 12.999L52.7522 12.8456L53.8427 12.6926L54.9333 12.5392L56.0239 12.3858L58.2049 12.079L59.4769 11.9001L60.7434 12.0793L62.9132 12.3861L63.9979 12.5392L65.0829 12.6926L66.1676 12.8456L67.2527 12.999L68.3377 13.1521L71.5925 13.6123L72.6772 13.7653L73.7623 13.9187L74.8473 14.0721L75.932 14.2255L77.017 14.3786L78.1024 14.5316L80.2718 14.8387L81.3569 14.9918L82.4416 15.1452L83.5266 15.2983L84.6116 15.4517L85.6963 15.6047L86.7814 15.7581L87.8661 15.9112L88.9511 16.0646L90.0362 16.218L91.1209 16.3713L92.2059 16.5241L93.2909 16.6778L95.4965 16.9888V20.2626L95.504 20.2636V25.8325L95.4965 25.8312V27.3444L95.5782 27.3748L95.8033 32.8723L95.8411 37.3283L95.7329 41.5958L95.4852 45.6805L95.1045 49.5876L94.5972 53.3216L93.9694 56.8887L93.2286 60.2933L92.3806 63.541L91.4319 66.6359L90.3898 69.5839L89.2598 72.3895L88.0505 75.0582L86.7672 77.5943L85.4177 80.0032L84.0084 82.2897L82.5472 84.4595L81.0397 86.517L79.4942 88.4682L77.917 90.3175L76.316 92.0709L74.6971 93.7332L73.0683 95.3101L71.4362 96.8068L69.8083 98.2293L68.1908 99.5823L66.591 100.872L65.0161 102.103L63.4731 103.28L61.9686 104.411L60.5103 105.498L58.3648 107.1L55.4303 105.14L53.2974 103.619L51.2199 102.038L49.1996 100.396L47.2385 98.692L45.3381 96.926L43.5003 95.0978L41.7271 93.2065L40.0206 91.2523L38.3821 89.2345L36.8137 87.1527L35.3173 85.0066L33.8948 82.796L32.5475 80.5205L31.278 78.1798L30.0875 75.7736L28.9782 73.3021L27.9515 70.7642L27.0097 68.1601L26.1538 65.4895L25.3863 62.7527L24.7081 59.9487L24.1213 57.0776L23.6273 54.1386L23.2285 51.1322L22.9252 48.0579L22.7203 44.9152L22.6146 41.7037L22.6104 38.4231L22.7085 35.0727L22.911 31.6532L23.2754 27.5272V23.1599L23.2828 23.159V22.8741L23.2754 22.8751V16.9881L25.4877 16.6775L26.5782 16.5241L27.6688 16.371L28.7593 16.2176L29.85 16.0646L30.9406 15.9112L32.0311 15.7581L33.1218 15.6047L34.2124 15.4517L35.3029 15.2983L36.3935 15.1452L37.4841 14.9915Z" fill="white"/>
<path fill-rule="evenodd" clip-rule="evenodd" d="M24.5844 28.4676C47.8036 18.4776 71.0226 19.582 94.2421 28.4676C97.0767 78.6377 73.0455 94.549 58.3248 105.604C35.1152 90.5822 20.7715 65.6453 24.5844 28.4676Z" fill="#231F20"/>
<path fill-rule="evenodd" clip-rule="evenodd" d="M26.3228 29.6313C28.1493 28.8685 29.9883 28.1784 31.8522 27.51L36.0919 26.1747L40.3298 25.0832L44.5662 24.2294L48.8023 23.609L53.0385 23.217L57.2755 23.0487L61.5136 23.0991L65.754 23.3642L69.9972 23.8389L74.2434 24.5187L78.4931 25.4003L82.7461 26.4782L87.0026 27.748C88.8329 28.3544 90.6504 28.9767 92.4571 29.6526L92.6008 33.1967L92.6376 37.5417L92.5327 41.6949L92.2941 45.6624L91.9272 49.449L91.4399 53.0606L90.8386 56.5033L90.1301 59.7817L89.3205 62.9025L88.417 65.8715L87.4259 68.6938L86.3538 71.3761L85.2071 73.9236L83.9919 76.3423L82.7144 78.6381L81.3814 80.8167L79.998 82.8842L78.5709 84.846L77.1068 86.7073L75.6107 88.474L74.089 90.1516L72.5484 91.7453L69.4327 94.7025L66.3129 97.3892C64.8007 98.6165 63.2761 99.818 61.7329 101.004C60.5849 101.872 59.4343 102.738 58.284 103.602L55.027 101.319L53.0428 99.7982L51.1144 98.2197L49.2446 96.5839L47.434 94.8898L45.6849 93.1373L43.9982 91.3258L42.3758 89.4551L40.8189 87.5243L39.3293 85.5334L37.9084 83.4813L36.558 81.3676L35.2787 79.1921L34.0733 76.9541L32.9424 74.6525L31.8885 72.2877L30.9123 69.8577L30.0162 67.3631L29.2013 64.8022L28.4696 62.1756L27.8226 59.4814L27.2621 56.7197L26.7897 53.8896L26.4076 50.991L26.1169 48.0226L25.9201 44.9842L25.8186 41.8754L25.8145 38.6959L25.909 35.4443L26.1046 32.1207L26.3228 29.6313ZM65.8215 87.7177C66.0607 87.059 65.2376 87.2446 65.112 86.9732C64.9864 86.7015 65.0377 86.3922 65.4649 86.0029C66.4208 85.4349 67.4742 85.7521 68.5079 85.8921C68.7636 85.9843 68.8001 86.3716 68.6174 87.0539L67.8772 89.2667C67.5117 89.405 66.9546 89.4603 66.5891 89.5987C66.2784 89.783 66.2235 89.9306 66.4247 90.0412C66.7169 90.1151 67.0366 89.9674 67.3292 90.0412C66.1796 95.4456 60.0982 93.3515 62.1524 90.8565C64.1038 92.0293 64.1765 89.3043 62.8883 89.5433C61.2679 89.8441 61.2249 91.2458 61.2162 91.7285C61.1719 94.1722 67.1138 95.5325 68.5899 89.9859C69.0562 89.7463 69.4124 89.8108 69.8784 89.571C70.0524 89.4696 70.0615 89.2684 69.9058 89.1669C69.6226 89.1577 69.1202 89.2342 68.8369 89.2251C69.0365 88.5335 69.2913 87.5083 69.4912 86.817C69.6982 86.1024 69.6288 86.2691 70.3844 86.2C71.8066 86.0705 73.3634 86.6196 74.7849 85.2282C70.7251 86.3845 65.9839 83.2261 63.9662 86.4031C63.7192 86.792 63.6963 87.0559 63.8187 87.4414C64.0476 88.1618 65.1682 88.332 65.8215 87.7177ZM47.8531 91.2145C47.3853 93.0442 50.2475 93.9144 51.4092 93.2878C52.5711 92.6612 53.2275 91.1603 51.9333 90.1147C49.7421 89.1947 45.7783 87.5481 48.4925 84.8029C49.4313 84.5616 50.2422 84.227 51.8346 85.3265C52.0634 85.2573 52.2922 85.188 52.5211 85.1188C53.0492 86.0521 53.0703 86.3914 53.0703 87.4738C52.7956 87.1276 52.5211 86.7812 52.2464 86.4348C51.8574 86.2039 51.4684 85.9731 51.0795 85.7421C49.7127 85.2057 48.7193 85.4241 49.5693 87.0582C51.8925 88.5753 54.6073 89.1282 54.0181 92.0457C53.9108 93.2021 52.4938 94.1381 51.7702 94.232C48.3573 94.277 46.9392 93.6878 46.8234 91.0066C46.8771 90.2298 47.2892 89.814 48.059 89.7597C49.2398 89.6133 49.3553 90.7171 48.6768 91.4223C48.4022 91.353 48.1276 91.2838 47.8531 91.2145ZM48.699 32.7805C48.5682 31.6354 48.6047 31.3134 50.1982 30.611C51.4449 30.0404 52.5093 30.0062 53.748 29.6406C54.3756 28.8869 54.6488 28.9199 55.4526 28.7174C55.4736 28.5492 55.4946 28.3806 55.5152 28.2123C54.934 27.8061 54.6417 27.5681 54.2016 27.013C54.2226 26.8238 54.2434 26.6342 54.2642 26.445C54.431 26.466 54.5977 26.4869 54.7646 26.5083C54.7022 26.3184 54.6395 26.1291 54.577 25.9399C55.1816 25.9819 55.7865 26.0242 56.391 26.0662C56.391 25.8979 56.391 25.7297 56.391 25.5611C56.391 25.2876 56.391 25.0141 56.391 24.7405C56.4482 24.4722 56.5735 24.4092 56.7662 24.5513C57.1418 25.0141 57.5171 25.4771 57.8926 25.9399C57.934 25.4348 58.0266 25.0325 58.0683 24.5274C58.0789 24.2591 58.2246 24.1964 58.5062 24.3382C58.8814 25.0538 59.2063 25.6664 59.5815 26.382C60.4031 26.0775 61.5427 26.2015 62.7717 26.445C62.6884 26.5922 62.6051 26.7395 62.5215 26.8867C62.9803 27.034 63.4389 27.1816 63.8978 27.3288C63.8771 27.4548 63.8561 27.5813 63.8354 27.7073C65.2263 27.8578 65.9212 28.0396 67.2133 28.5911C66.4835 28.8014 65.7536 29.0119 65.0238 29.2225C64.6169 29.4117 64.6169 29.6009 65.0238 29.7905C66.4208 30.2736 67.8178 30.9117 69.2151 32.631C69.1734 32.7572 69.1318 32.8835 69.0901 33.0098C67.4813 31.7794 66.0378 31.1045 64.8362 31.2424C64.7161 31.4526 64.7997 31.6631 65.0861 31.8734C66.6084 33.0388 68.1307 33.7596 69.653 33.8303C68.4016 34.0841 67.1506 34.0815 65.8996 33.5145C65.8273 33.767 65.6826 34.0195 65.8996 34.2721C66.7935 34.8291 67.4338 35.4585 69.3401 35.724C69.3401 35.8502 68.9335 35.8738 68.9335 36C67.6825 36.0714 66.838 35.6445 65.5867 35.0297C65.3471 35.1504 65.2428 35.34 65.2741 35.5977C66.1751 36.9401 67.0318 38.3264 68.214 39.385C68.089 39.4273 67.9637 39.4693 67.8388 39.5112C66.2758 38.475 65.6335 37.6715 64.7109 36.797C64.6027 37.0496 64.3857 37.3021 64.7109 37.5546C65.7494 38.6038 66.6791 39.3972 68.1517 41.4682C68.0942 41.7365 67.9689 41.7995 67.7761 41.6574C66.4841 40.3534 66.4696 40.4429 64.6486 40.2055C64.7077 41.6429 67.0457 41.5825 68.4368 43.8905C68.3329 43.9324 68.381 44.0771 68.2767 44.1191C67.0001 43.4413 67.0709 43.492 65.6493 43.8036C66.1915 44.1824 66.7337 44.5612 67.2759 44.9396C67.2759 45.0662 67.2759 45.1922 67.2759 45.3188C66.3565 44.9345 65.5567 44.9115 64.7736 44.9396C65.5034 45.529 66.2332 46.118 66.963 46.7073C67.2184 46.9021 67.1351 47.028 66.7131 47.0861C65.9206 46.8123 65.1281 46.5388 64.3357 46.2656C65.1698 47.0438 65.8515 47.617 66.6853 48.3956C66.8887 48.7008 66.787 48.869 66.5839 48.9007C65.0458 47.9616 64.852 47.5602 63.147 47.9697C63.147 48.2012 63.147 48.4324 63.147 48.6643C64.7377 48.6643 64.564 48.4699 65.524 49.737C64.8333 49.4154 64.6537 49.3586 63.8978 49.3586C64.2385 50.0316 64.3977 50.7052 65.4617 51.3785C67.0602 52.6024 63.3511 51.1211 62.7094 50.2421C62.0003 49.7477 61.2914 49.3899 60.5823 49.169C60.4292 49.8003 60.3272 50.4313 60.5823 51.0627C61.3538 52.3463 62.1252 53.6296 62.897 54.9132C63.5432 55.6075 64.139 56.4045 64.7852 57.0988C65.6403 57.7301 66.1392 58.4125 66.994 59.0438C69.1508 60.8796 71.6119 62.1029 71.5922 65.3283C76.8281 66.8238 77.6567 57.7531 76.9718 56.8621C74.5347 51.3168 76.2165 47.1007 79.6618 44.6871C79.6618 44.8137 79.6618 44.9396 79.6618 45.0662C78.0575 46.9005 77.7275 47.4065 77.0345 49.737C77.1346 50.1569 77.1262 50.722 77.66 50.5576C78.3782 49.6744 79.2107 48.9372 80.1623 48.2855C80.5844 48.3591 80.668 48.5693 80.4126 48.9165C79.1374 50.8725 78.8538 51.2684 78.5984 53.5876C78.765 53.6719 78.932 53.7559 79.0989 53.8402C79.5995 53.2718 80.0997 52.7038 80.6002 52.1358C80.9806 52.2988 81.0226 52.5304 80.7252 52.83C79.2271 53.9642 80.763 59.472 80.4126 61.478C79.9269 64.2568 78.343 65.14 76.1587 66.8435C76.6686 68.9654 76.5484 69.3839 76.0337 71.5143C75.8632 70.0685 76.1584 69.1576 74.9703 68.3583C74.8902 71.2711 72.8328 73.0085 73.2184 72.7769C73.8016 71.0541 74.2892 70.6563 73.594 68.9893C73.3056 69.8622 72.9791 70.7167 72.6556 71.5776C72.7644 70.7179 72.7812 67.4422 72.5932 67.727C72.4053 67.748 72.2177 67.769 72.03 67.79C70.8853 71.5702 69.8277 72.5518 66.7131 74.7968C66.2748 75.0913 65.837 75.3858 65.3991 75.6804C65.1 76.9633 65.3177 77.3018 65.712 78.5841C65.9413 79.0891 66.1705 79.594 66.4001 80.099C66.4001 81.2739 66.4579 81.2294 65.712 82.119C65.1075 82.3504 64.5026 82.5819 63.8978 82.8133C62.9594 83.7392 62.0212 84.6649 61.0828 85.5908C60.9136 86.8708 60.8338 86.5717 59.5815 86.9164C59.6648 87.2531 59.7482 87.5896 59.8318 87.9263C58.3589 89.0556 57.9624 89.189 56.1411 89.5674C56.0364 89.3992 55.9325 89.2308 55.8281 89.0624C56.0991 88.4943 56.3703 87.9263 56.6413 87.3581C57.2636 86.5797 57.758 85.4014 58.7681 85.4014C58.7891 85.233 58.8101 85.0648 58.8307 84.8965C59.227 84.6018 59.7249 84.3071 60.1211 84.0127C61.1635 83.0027 62.1046 81.9927 63.147 80.9829C63.3798 80.6039 63.3743 80.2251 63.3349 79.8466C63.147 79.5099 62.9594 79.1732 62.7717 78.8367C62.5634 78.3316 62.3548 77.8266 62.1462 77.3217C61.896 77.3637 61.6457 77.4058 61.3954 77.448C61.0276 78.5618 61.3305 78.6288 60.1444 78.4579C59.1227 77.974 58.1009 77.49 57.0792 77.0061C56.2034 76.8797 55.3276 76.7536 54.4519 76.6274C53.4503 76.5107 52.9781 76.536 52.1373 75.9961C51.6368 76.0171 51.1365 76.0381 50.6361 76.0591C50.5318 76.1854 50.4274 76.3117 50.3232 76.4379C48.563 76.5055 48.9812 76.5555 47.5864 75.3018C47.3571 74.7545 46.9243 74.2075 46.695 73.6608C48.0417 73.4415 48.7868 73.3643 50.1354 73.5342C50.365 73.7028 50.5943 73.871 50.8236 74.0393C52.1451 74.1416 52.946 74.0315 54.0766 74.7335C55.161 74.986 56.245 75.2386 57.3294 75.4911C57.809 75.4491 58.2885 75.4068 58.7681 75.3648C58.8934 75.0914 59.0187 74.8178 59.1436 74.5443C59.0603 74.2075 58.9767 73.871 58.8934 73.5342C57.8503 72.9313 57.1463 71.7 57.0278 70.3563C57.0278 70.3563 56.0565 69.3426 55.8688 68.522C55.4742 66.5777 54.3592 64.9908 56.2014 64.6327C56.4863 64.1241 54.7361 63.1514 54.2016 62.7404C51.9852 60.9103 49.6704 59.5182 49.3848 56.4914C48.9262 56.4701 48.4674 56.4491 48.0085 56.4281C46.5455 56.564 46.6256 56.3148 45.6315 55.355C44.4162 54.9601 43.3894 54.2348 42.5037 53.2718C42.5037 53.2718 41.6905 52.6999 41.2526 52.6999C40.6415 52.6999 41.4209 56.5259 41.1901 56.9961C41.8405 57.6526 41.8922 57.5212 41.8156 58.448C42.4127 59.171 42.7327 59.348 42.8164 60.2787C42.9 60.5099 42.9835 60.7414 43.0667 60.973C44.2647 61.2148 43.8836 60.9381 44.0833 62.0461C44.2084 62.7404 44.0677 63.6242 44.0677 63.6242C43.9841 63.9397 43.9008 64.2552 43.8174 64.5707C43.8174 64.5707 43.0041 64.3185 42.6289 63.9397C41.7827 63.0859 41.7143 63.33 41.8782 62.1723C41.3641 61.9502 41.3283 61.8216 41.0024 61.3518C41.0024 61.3518 41.1901 61.1625 40.7522 60.8467C40.0328 60.3284 40.1891 60.4443 40.1891 59.5211C40.1891 59.016 40.1891 59.016 40.1891 58.7005C40.1891 58.385 40.4394 58.448 40.1267 57.7537C39.8138 57.0594 39.939 57.5645 39.5636 56.6177C39.3668 56.2108 39.5423 55.4797 39.5011 55.355C39.0924 54.2267 39.1107 53.8505 39.0006 53.9035C38.959 54.2819 38.9172 54.6607 38.8755 55.0395C38.8755 55.2078 38.8755 55.376 38.8755 55.5446C38.4935 56.3306 38.3546 56.6186 37.8121 57.5012C37.0759 57.7133 36.6234 57.8354 36.6234 56.6806C36.6234 55.4768 36.6024 55.3347 37.124 54.2819C37.1864 54.0084 37.2491 53.7349 37.3115 53.4614C37.3115 53.4614 37.3115 53.0196 37.3115 52.5778C37.3115 51.2739 37.5144 49.8323 38.3751 48.7902C38.9062 48.147 39.4821 46.1012 39.6887 45.3188C39.7944 44.2521 39.5689 44.1685 40.5018 43.7406C40.629 43.099 42.1262 43.0321 42.5663 43.2985C42.879 43.4881 43.442 44.0561 43.442 44.0561C44.6183 44.783 45.8056 45.3972 46.8201 46.5811C47.2787 46.5811 47.7377 46.5811 48.1962 46.5811C48.5925 46.2866 48.9886 45.9917 49.3848 45.6972C49.4304 45.1754 51.0877 44.1662 51.4727 44.3955C52.1083 42.8558 52.7076 42.1628 53.9357 40.9237C53.6898 40.8556 56.113 36.7157 56.516 36.7341C56.6032 36.2959 56.9074 34.9751 56.3403 34.8401C55.6034 35.0632 53.5526 34.7565 53.2007 34.1458C52.9714 34.1458 52.8947 34.2485 52.6651 34.2485C52.4359 34.3115 52.2064 34.3748 51.977 34.4377C51.4541 34.8772 51.3437 34.6008 50.7493 34.8007C50.3751 34.8007 49.8099 34.9312 49.68 34.6315C49.4578 34.1177 49.941 34.1816 50.2607 34.1458C50.4066 34.1038 50.5525 34.0618 50.6985 34.0195C51.3785 33.7909 50.8264 33.7573 50.3857 33.5145C50.2189 33.5565 50.0521 33.5988 49.8854 33.6407C49.7393 33.6407 49.5934 33.6407 49.4474 33.6407C49.3223 33.6407 49.1972 33.6407 49.0722 33.6407C48.5604 33.3185 48.7684 33.3895 48.699 32.7805ZM50.0143 31.7219C50.245 31.7219 50.414 31.9593 50.3907 32.2505C50.3674 32.5412 50.1601 32.7785 49.9293 32.7785C49.6987 32.7785 49.5295 32.5412 49.5529 32.2505C49.5762 31.9593 49.7836 31.7219 50.0143 31.7219ZM39.7683 50.1604C40.6022 50.0057 41.4581 49.8895 42.5647 50.1091C43.1122 50.2353 44.2667 50.5008 44.8525 50.4168C44.3729 49.7713 44.0308 49.0473 43.5305 48.416C43.1091 47.9435 42.6226 47.5444 42.2595 47.0309C41.7345 46.7287 41.6053 46.6754 41.0395 46.8769C40.5716 47.255 40.5303 47.5453 40.3276 48.1082C40.3276 48.9891 40.2244 49.4238 39.7683 50.1604ZM52.1056 44.9781C51.8826 45.1825 51.9029 45.3872 52.1666 45.5916C53.4892 45.4667 53.8141 45.2115 55.0241 45.7143C55.5304 45.755 56.1814 45.3701 55.6928 44.9781C54.6912 44.1753 53.3013 44.7698 52.1056 44.9781ZM54.7201 42.7082C54.6269 44.899 58.1054 38.8376 58.3073 38.5977C58.5908 37.6573 58.469 37.2888 57.9424 37.4936C56.8683 39.2316 55.7939 40.9699 54.7201 42.7082ZM56.6048 29.8247C56.9061 29.8247 57.1518 30.0317 57.1518 30.2849C57.1518 30.5384 57.0885 30.7451 56.7872 30.7451C56.4859 30.7451 56.1792 30.3543 56.1792 30.1008C56.1792 29.8476 56.3035 29.8247 56.6048 29.8247ZM41.9524 52.5856C43.2289 53.1175 43.911 53.8909 44.7491 54.3032C45.6841 54.7637 46.1472 54.3442 45.7219 53.8124C44.1551 53.0083 42.7323 51.8719 41.9524 52.5856ZM39.7635 50.3771C40.2339 50.6487 40.2372 50.7194 40.1283 51.4198C40.1761 52.2378 40.11 53.4526 39.4595 51.9107C39.3785 51.7473 39.2975 51.5835 39.2163 51.4198C39.1556 50.9903 39.338 50.6429 39.7635 50.3771ZM42.2564 43.841C42.174 44.3787 42.12 44.4052 41.5459 44.5331C40.9226 44.8492 39.9603 45.1877 40.9804 44.0584C41.0849 43.9273 41.1904 43.7958 41.2953 43.6647C41.6124 43.4648 41.9327 43.5233 42.2564 43.841ZM44.8443 48.8115C44.1745 48.7983 44.1335 48.736 43.8825 48.043C43.3934 47.3212 42.8216 46.1816 44.3681 47.2621C44.5455 47.3703 44.7234 47.4798 44.901 47.5886C45.1976 47.9493 45.1783 48.3572 44.8443 48.8115ZM45.9864 51.1469C45.7905 50.174 45.9879 50.0332 46.891 49.448C47.7594 48.5109 47.9787 47.4404 47.7298 49.1642C47.6326 49.4555 47.5351 49.7471 47.4377 50.0387C47.0198 50.5828 46.7386 51.4838 45.9864 51.1469ZM62.2528 55.6531C61.9505 57.8435 58.8972 51.8441 59.2735 51.6039C58.9899 50.6632 59.3548 50.4178 59.8815 50.6222C60.3882 52.3605 60.4489 53.9148 62.2528 55.6531ZM57.3336 63.4179C56.3074 63.8557 52.2687 59.7268 51.9828 59.515C51.4227 58.5488 51.461 58.1089 52.0979 58.1948C53.7417 59.9645 55.6903 62.172 57.3336 63.4179ZM58.44 67.6466C59.0455 68.0167 59.2683 67.9363 59.1091 67.4057C58.203 65.7914 57.6753 65.709 56.8625 64.8016C56.3371 64.705 56.1937 64.6569 56.4323 64.9459C57.1576 66.081 57.9181 66.7227 58.44 67.6466ZM62.2156 66.1036C62.2082 67.2126 61.9215 68.3218 61.0208 69.4311C60.7502 69.383 60.4793 69.3349 60.2083 69.2867C59.7943 69.4472 59.6988 69.608 59.9216 69.7689C60.0808 69.9135 60.2403 70.0582 60.3995 70.2032C59.9678 71.6176 59.6642 73.0324 60.2561 74.4471C60.8616 74.7365 61.0848 74.5756 60.9252 73.9647C59.9225 72.382 60.7157 71.3573 61.4032 70.2994C61.6799 71.1675 60.8503 72.6949 61.4991 72.9038C62.1297 71.8014 63.3969 69.8596 61.7855 69.8173C62.6429 68.7077 63.0578 66.8722 63.0762 66.2964C63.1147 65.0806 62.5347 65.0909 62.2156 66.1036ZM62.2683 60.0488C62.9907 60.5435 62.8592 60.6959 62.225 61.3569C61.8152 62.2108 62.1546 62.9099 61.4981 61.8207C61.4451 61.6169 61.3922 61.4131 61.3386 61.2094C61.4871 60.7447 61.3014 60.1211 62.2683 60.0488ZM70.8352 66.8751C70.3305 67.4018 70.3579 67.6366 70.5094 68.6703C70.4939 69.92 70.1319 70.8051 70.7616 69.4534C70.843 69.1857 70.925 68.9179 71.0067 68.6509C71.0538 67.9857 71.3154 67.1729 70.8352 66.8751ZM75.8135 65.6112C80.5867 62.6008 77.6509 59.6422 78.9765 56.1007C76.8578 58.7296 79.5617 62.5317 75.1179 65.1006C73.8526 65.6538 74.422 66.143 75.8135 65.6112ZM64.0951 81.353C63.9081 82.0611 63.6943 82.1579 62.7385 82.5589C61.6844 83.2161 61.119 83.985 61.9434 82.7443C62.1285 82.5357 62.3135 82.3274 62.4989 82.1187C63.0391 81.7353 63.5949 81.0906 64.0951 81.353Z" fill="#FFF200"/>
<path fill-rule="evenodd" clip-rule="evenodd" d="M24.6094 21.5655L59.5752 16.3228L94.1784 21.5655V24.5613L59.5752 18.9443L24.6094 24.5613V21.5655Z" fill="white"/>
<path fill-rule="evenodd" clip-rule="evenodd" d="M94.1708 24.4013C94.1708 25.5906 94.1708 26.8174 94.1708 28.1982C66.4947 19.2432 51.0815 18.7258 24.6016 28.1982C24.6016 26.8174 24.6016 25.5906 24.6016 24.4013L59.5682 19.0446L94.1708 24.4013Z" fill="#ED1C24"/>
<path fill-rule="evenodd" clip-rule="evenodd" d="M24.6016 18.2714C36.2264 16.6183 47.8513 14.9656 59.4765 13.3125C71.0412 14.9656 82.6058 16.6183 94.1708 18.2714C94.1708 19.4514 94.1708 20.5212 94.1708 21.5507L59.5682 16.4346L24.6016 21.551C24.6016 20.5212 24.6016 19.4514 24.6016 18.2714Z" fill="#00A650"/>
</svg>
