<svg width="119" height="119" viewBox="0 0 119 119" fill="none" xmlns="http://www.w3.org/2000/svg">
<path fill-rule="evenodd" clip-rule="evenodd" d="M59.5002 106.059C85.2339 106.059 106.059 85.2337 106.059 59.4999C106.059 33.7662 85.2339 12.9412 59.5002 12.9412C33.7664 12.9412 12.9414 33.7662 12.9414 59.4999C12.9414 85.2337 33.7664 106.059 59.5002 106.059ZM15.7677 59.4999C15.7677 35.2537 35.2539 15.7674 59.5002 15.7674C83.7464 15.7674 103.233 35.2537 103.233 59.4999C103.233 83.5974 83.7464 103.232 59.5002 103.232C35.4027 103.232 15.7677 83.7462 15.7677 59.4999Z" fill="url(#paint0_linear_556_24918)"/>
<path fill-rule="evenodd" clip-rule="evenodd" d="M15.7676 59.4998C15.7676 35.2536 35.2538 15.7673 59.5001 15.7673C83.7463 15.7673 103.233 35.2536 103.233 59.4998C103.233 83.5973 83.7463 103.232 59.5001 103.232C35.4026 103.232 15.7676 83.7461 15.7676 59.4998ZM18.5938 59.4998C18.5938 82.1098 36.8901 100.406 59.5001 100.406C82.1101 100.406 100.406 82.1098 100.406 59.4998C100.406 36.8898 82.1101 18.5936 59.5001 18.5936C36.8901 18.5936 18.5938 36.8898 18.5938 59.4998Z" fill="url(#paint1_linear_556_24918)"/>
<path opacity="0.4" fill-rule="evenodd" clip-rule="evenodd" d="M107.1 59.4999C107.1 33.3199 85.6804 11.8999 59.5004 11.8999C33.3204 11.8999 11.9004 33.3199 11.9004 59.4999C11.9004 85.6799 33.3204 107.1 59.5004 107.1C85.6804 107.1 107.1 85.6799 107.1 59.4999ZM106.059 59.4999C106.059 85.2336 85.2341 106.059 59.5004 106.059C33.7666 106.059 12.9416 85.2336 12.9416 59.4999C12.9416 33.7661 33.7666 12.9412 59.5004 12.9412C85.2341 12.9412 106.059 33.7661 106.059 59.4999Z" fill="url(#paint2_linear_556_24918)"/>
<path fill-rule="evenodd" clip-rule="evenodd" d="M59.5004 15.1724C34.9566 15.1724 15.1729 35.2536 15.1729 59.6486C15.1729 84.0436 34.9566 103.827 59.5004 103.827C84.0441 103.827 103.828 84.0436 103.828 59.6486C103.828 35.1049 84.0441 15.1724 59.5004 15.1724ZM16.2141 59.6486C16.2141 47.7486 21.1229 36.8899 29.0066 29.0061C36.7416 21.1224 47.6003 16.2136 59.5004 16.2136C71.4003 16.2136 82.2591 21.1224 89.9941 29.0061C97.7291 36.8899 102.638 47.7486 102.638 59.6486C102.638 71.5486 97.8778 82.4074 89.9941 90.1424C82.2591 98.0261 71.4003 102.786 59.5004 102.786C47.6003 102.786 36.7416 97.8774 28.8579 90.1424C21.1229 82.4074 16.2141 71.5486 16.2141 59.6486Z" fill="white"/>
<path opacity="0.4" fill-rule="evenodd" clip-rule="evenodd" d="M30.4941 88.5061C38.2291 96.2411 48.4928 100.555 59.5003 100.555C70.5078 100.555 80.7716 96.2411 88.5066 88.5061C96.2416 80.7711 100.555 70.5073 100.555 59.4998C100.555 48.4923 96.2416 38.2286 88.5066 30.4936C80.7716 22.7586 70.5078 18.4448 59.5003 18.4448C48.4928 18.4448 38.2291 22.7586 30.4941 30.4936C22.7591 38.2286 18.4453 48.4923 18.4453 59.4998C18.4453 70.5073 22.7591 80.7711 30.4941 88.5061ZM87.6141 87.7623C80.1766 95.1998 70.0616 99.3648 59.5003 99.3648C48.9391 99.3648 38.8241 95.1998 31.2378 87.6136C23.8003 80.1761 19.6353 70.0611 19.6353 59.4998C19.6353 48.9386 23.8003 38.8236 31.3866 31.5348C38.8241 24.0973 48.9391 19.9323 59.5003 19.9323C70.0616 19.9323 80.0278 23.9486 87.6141 31.5348C95.0516 38.9723 99.2166 49.0873 99.2166 59.6486C99.2166 70.2098 95.2003 80.1761 87.6141 87.7623Z" fill="url(#paint3_linear_556_24918)"/>
<path d="M95.6463 78.8374C94.9025 78.2424 66.1938 55.4836 66.1938 55.4836L59.5 17.2549C59.0538 17.4036 58.4588 17.8499 58.1613 18.4449L53.4013 55.6324L23.8 78.3911C23.8 78.3911 23.205 79.1349 22.9075 79.5811C22.7588 79.8786 22.7588 80.3249 22.7588 80.7711L59.3513 65.7474L95.9438 80.7711C96.2413 80.0274 95.9438 79.2836 95.6463 78.8374Z" fill="white"/>
<path d="M59.7975 60.6899L59.5 67.5324L93.1175 81.0686C94.3075 81.6636 95.2 81.3661 96.0925 80.7711L60.2437 60.5411C60.095 60.3924 59.7975 60.5411 59.7975 60.6899Z" fill="#565F64"/>
<path d="M59.7979 60.6899C59.7979 60.6899 61.7316 64.1111 63.9629 66.4911C67.0866 69.9124 71.2516 72.2924 71.2516 72.2924L93.1179 81.0686C94.3078 81.6636 95.2004 81.3661 96.0928 80.7711L60.2441 60.5411C60.0954 60.3924 59.7979 60.5411 59.7979 60.6899Z" fill="url(#paint4_linear_556_24918)"/>
<path d="M95.9439 79.4325C95.9439 79.2837 95.7951 79.135 95.6464 78.8375L65.0039 56.3762L60.8389 59.0537C60.8389 59.0537 61.1364 59.2025 61.2851 59.0537C61.7314 58.905 62.6239 58.7562 63.5164 59.0537C64.2601 59.3512 95.9439 79.5812 95.9439 79.4325C95.9439 79.5812 95.9439 79.5812 95.9439 79.4325Z" fill="#A4AAAE" fill-opacity="0.6"/>
<path d="M94.9027 78.0936L66.3427 55.4836L65.0039 56.3761L95.6464 78.9861C95.4977 78.6886 95.2002 78.3911 94.9027 78.0936Z" fill="#333E46"/>
<path d="M60.2441 58.4586L60.0953 58.6073C60.0953 58.6073 60.0953 58.9048 60.3928 58.7561C60.5416 58.6073 64.8553 56.3761 66.3428 55.4836L61.1366 19.7836C60.9878 18.4448 60.3928 17.8498 59.3516 17.4036L59.9466 58.7561L60.2441 58.4586Z" fill="#565F64"/>
<path fill-rule="evenodd" clip-rule="evenodd" d="M57.7157 21.7175V19.7837C57.8645 19.04 58.0132 18.445 58.4595 18.1475L58.3107 20.9737L56.972 57.2687L55.0382 55.7812C54.592 55.4837 54.4432 55.0375 54.4432 54.5912L57.7157 21.7175ZM54.1457 56.3762L55.9307 57.8637C56.377 58.31 56.2282 58.6075 55.6332 58.905L23.9495 78.8375L22.9082 79.4325C23.057 78.8375 23.9495 78.2425 23.9495 78.2425L54.1457 56.3762Z" fill="#A4AAAE" fill-opacity="0.6"/>
<path d="M59.0538 60.6899C59.0538 60.5411 58.905 60.3924 58.7563 60.5411L22.7588 80.9199C23.6513 81.5149 24.5438 81.6636 25.7338 81.2174L59.3513 67.6811L59.0538 60.6899Z" fill="#565F64"/>
<path d="M60.0957 58.6073L60.2445 58.4586L60.0957 58.6073C60.0957 58.6073 60.0957 58.7561 60.2445 58.7561H60.3932C60.542 58.6073 64.8557 56.3761 66.3432 55.4836L65.7482 51.1698L61.137 19.7836C61.137 19.1886 60.9882 18.7423 60.6907 18.4448C60.6907 18.4448 62.922 48.4923 62.922 51.7648C62.922 56.0786 60.0957 58.6073 60.0957 58.6073H60.0957Z" fill="url(#paint5_linear_556_24918)"/>
<path d="M59.0538 60.6899C59.0538 60.5411 58.905 60.3924 58.7563 60.5411L22.7588 80.9199C23.6513 81.5149 24.5438 81.6636 25.7338 81.2174L59.3513 67.6811L59.0538 60.6899Z" fill="url(#paint6_linear_556_24918)" fill-opacity="0.8"/>
<path opacity="0.8" d="M25.7339 81.0685L59.3514 67.5323L59.0539 60.9873C58.4589 62.7723 57.4177 64.7061 54.5914 66.1936C52.5089 67.3836 32.5764 77.201 25.4364 80.6223C24.9902 80.9198 24.3952 81.0685 24.0977 81.2173C24.6927 81.5148 25.1389 81.366 25.7339 81.0685Z" fill="url(#paint7_linear_556_24918)"/>
<path d="M60.2441 58.4586L60.0953 58.6073C60.0953 58.6073 60.0953 58.9048 60.3928 58.7561C60.5416 58.6073 64.8553 56.3761 66.3428 55.4836L61.1366 19.7836C60.9878 18.4448 60.3928 17.8498 59.3516 17.4036L59.9466 58.7561L60.2441 58.4586Z" fill="url(#paint8_linear_556_24918)"/>
<path d="M60.2441 58.4586L60.0953 58.6073C60.0953 58.6073 60.0953 58.9048 60.3928 58.7561C60.5416 58.6073 64.8553 56.3761 66.3428 55.4836L61.1366 19.7836C60.9878 18.4448 60.3928 17.8498 59.3516 17.4036L59.9466 58.7561L60.2441 58.4586Z" fill="url(#paint9_linear_556_24918)"/>
<path d="M19.4864 77.9449C18.4452 75.5649 12.4952 63.9624 19.0402 41.6499H16.5114C15.1727 46.1124 14.1314 48.7899 13.5364 52.8062C13.5364 52.8062 13.2389 54.2937 13.0902 55.9299C12.9414 57.5662 12.9414 58.4587 12.9414 59.4999C12.9414 68.4249 15.1727 73.6312 15.1727 73.6312C17.5527 81.0687 21.7177 87.7624 27.3702 92.8199C32.2789 97.1337 39.8652 100.406 46.1127 101.596C45.0714 101.447 27.2214 93.8611 19.4864 77.9449Z" fill="url(#paint10_linear_556_24918)"/>
<path d="M60.0957 60.3924H58.757C58.9057 60.3924 59.0545 60.3924 59.0545 60.5412L59.352 67.3837H59.5007L59.7982 60.5412C59.7982 60.3924 59.947 60.2437 60.0957 60.3924Z" fill="url(#paint11_linear_556_24918)"/>
<path d="M74.375 15.321C89.9937 21.271 104.72 37.6335 104.72 58.3098C104.72 83.2998 84.7875 103.679 59.5 103.679V106.059C84.7875 106.059 106.059 85.2335 106.059 59.4998C106.059 38.9723 92.9687 21.7173 74.375 15.321Z" fill="url(#paint12_linear_556_24918)"/>
<path d="M99.3654 41.9475C88.9529 17.9987 65.4504 16.66 64.1116 16.5112H63.9629C81.9616 19.7837 93.4154 31.535 97.4316 43.8812V44.03C99.2166 48.79 100.109 53.8475 100.258 59.3512C100.407 64.5575 99.2166 70.3587 96.9854 75.7137C96.8366 76.4575 96.6879 77.35 96.5391 77.35H98.9191C106.059 63.9625 102.935 50.4262 99.3654 41.9475Z" fill="url(#paint13_linear_556_24918)"/>
<path fill-rule="evenodd" clip-rule="evenodd" d="M59.5004 15.1724C34.9566 15.1724 15.1729 35.2536 15.1729 59.6486C15.1729 84.0436 34.9566 103.827 59.5004 103.827C84.0441 103.827 103.828 84.0436 103.828 59.6486C103.828 35.1049 84.0441 15.1724 59.5004 15.1724ZM16.2141 59.6486C16.2141 47.7486 21.1229 36.8899 29.0066 29.0061C36.7416 21.1224 47.6003 16.2136 59.5004 16.2136C71.4003 16.2136 82.2591 21.1224 89.9941 29.0061C97.7291 36.8899 102.638 47.7486 102.638 59.6486C102.638 71.5486 97.8778 82.4074 89.9941 90.1424C82.2591 98.0261 71.4003 102.786 59.5004 102.786C47.6003 102.786 36.7416 97.8774 28.8579 90.1424C21.1229 82.4074 16.2141 71.5486 16.2141 59.6486Z" fill="#FBFBFB"/>
<path d="M23.6514 78.5398L53.9964 56.6736C55.6326 57.5661 58.3101 58.7561 58.6076 58.7561C58.9051 58.9048 58.9051 58.6073 58.9051 58.6073L55.1864 55.4836C54.7401 55.1861 54.5914 54.7398 54.5914 54.2936L58.1614 18.4448C58.0126 18.5936 58.0126 18.8911 57.8639 19.0398C57.7151 19.3373 57.7151 19.4861 57.7151 19.7836L52.5089 55.6323L23.9489 78.0936C23.8001 78.2423 23.6514 78.3911 23.6514 78.5398Z" fill="#333F47"/>
<defs>
<linearGradient id="paint0_linear_556_24918" x1="-6.10454" y1="65.3012" x2="65.3014" y2="125.105" gradientUnits="userSpaceOnUse">
<stop stop-color="white"/>
<stop offset="0.1" stop-color="#E7E8E6"/>
<stop offset="0.1" stop-color="#CDD0D0"/>
<stop offset="0.2" stop-color="#B5BBBD"/>
<stop offset="0.2" stop-color="#A5ACAF"/>
<stop offset="0.3" stop-color="#9BA3A7"/>
<stop offset="0.3" stop-color="#98A0A4"/>
<stop offset="0.4" stop-color="#828A8F"/>
<stop offset="0.5" stop-color="#667075"/>
<stop offset="0.6" stop-color="#535C63"/>
<stop offset="0.7" stop-color="#475158"/>
<stop offset="0.8" stop-color="#434D54"/>
<stop offset="1" stop-color="#475157"/>
</linearGradient>
<linearGradient id="paint1_linear_556_24918" x1="-2.12556" y1="64.7938" x2="64.8119" y2="121.021" gradientUnits="userSpaceOnUse">
<stop stop-color="#0B1F2A"/>
<stop offset="0.2" stop-color="#333F47"/>
<stop offset="0.5" stop-color="#777F84"/>
<stop offset="0.5" stop-color="#81898D"/>
<stop offset="0.7" stop-color="#B3B8B8"/>
<stop offset="0.8" stop-color="#D2D5D3"/>
<stop offset="0.8" stop-color="#DEE0DD"/>
<stop offset="1" stop-color="#FBFBFB"/>
</linearGradient>
<linearGradient id="paint2_linear_556_24918" x1="120.542" y1="87.9305" x2="87.9659" y2="-1.61552" gradientUnits="userSpaceOnUse">
<stop stop-color="#E1E3E1"/>
<stop offset="0.1" stop-color="#C1C5C4"/>
<stop offset="0.3" stop-color="#9BA1A2"/>
<stop offset="0.5" stop-color="#7D8487"/>
<stop offset="0.7" stop-color="#687074" stop-opacity="0.01"/>
<stop offset="0.8" stop-color="#5B6469" stop-opacity="0.01"/>
<stop offset="1" stop-color="#576065" stop-opacity="0.01"/>
</linearGradient>
<linearGradient id="paint3_linear_556_24918" x1="3.42454" y1="44.4761" x2="44.4766" y2="115.576" gradientUnits="userSpaceOnUse">
<stop stop-color="#E1E3E1"/>
<stop offset="0.1" stop-color="#C1C5C4"/>
<stop offset="0.3" stop-color="#9BA1A2"/>
<stop offset="0.5" stop-color="#7D8487"/>
<stop offset="0.7" stop-color="#687074" stop-opacity="0.01"/>
<stop offset="0.8" stop-color="#5B6469" stop-opacity="0.01"/>
<stop offset="1" stop-color="#576065" stop-opacity="0.01"/>
</linearGradient>
<linearGradient id="paint4_linear_556_24918" x1="74.4621" y1="69.7684" x2="73.5566" y2="74.2606" gradientUnits="userSpaceOnUse">
<stop stop-color="#27343C"/>
<stop offset="1" stop-color="#00111E" stop-opacity="0.01"/>
</linearGradient>
<linearGradient id="paint5_linear_556_24918" x1="71.2947" y1="41.7668" x2="66.8778" y2="41.5963" gradientUnits="userSpaceOnUse">
<stop offset="0.1" stop-color="#02131F"/>
<stop offset="0.9" stop-color="#02131F" stop-opacity="0.01"/>
</linearGradient>
<linearGradient id="paint6_linear_556_24918" x1="57.9179" y1="64.1572" x2="53.4703" y2="68.0165" gradientUnits="userSpaceOnUse">
<stop offset="0.2" stop-color="#02131F"/>
<stop offset="0.9" stop-color="#02131F" stop-opacity="0.01"/>
</linearGradient>
<linearGradient id="paint7_linear_556_24918" x1="44.7554" y1="73.9739" x2="44.4464" y2="71.6645" gradientUnits="userSpaceOnUse">
<stop stop-color="#02131F"/>
<stop offset="0.1" stop-color="#02131F"/>
<stop offset="1" stop-color="#02131F" stop-opacity="0.01"/>
</linearGradient>
<linearGradient id="paint8_linear_556_24918" x1="64.808" y1="22.5333" x2="59.7486" y2="22.5503" gradientUnits="userSpaceOnUse">
<stop offset="0.3" stop-color="#02131F"/>
<stop offset="0.3" stop-color="#02131F"/>
<stop offset="0.8" stop-color="#02131F" stop-opacity="0.01"/>
</linearGradient>
<linearGradient id="paint9_linear_556_24918" x1="64.9783" y1="27.2881" x2="61.5539" y2="27.3008" gradientUnits="userSpaceOnUse">
<stop offset="0.4" stop-color="#27343C"/>
<stop offset="1" stop-color="#3B474E" stop-opacity="0.01"/>
</linearGradient>
<linearGradient id="paint10_linear_556_24918" x1="4.73864" y1="98.236" x2="49.0869" y2="106.072" gradientUnits="userSpaceOnUse">
<stop stop-color="#24303A" stop-opacity="0.01"/>
<stop stop-color="#25323B" stop-opacity="0.01"/>
<stop offset="0.1" stop-color="#27343C"/>
</linearGradient>
<linearGradient id="paint11_linear_556_24918" x1="60.1793" y1="67.5324" x2="60.1793" y2="60.3924" gradientUnits="userSpaceOnUse">
<stop offset="0.3" stop-color="#A5ABAF"/>
<stop offset="1" stop-color="#A5ABAF" stop-opacity="0.01"/>
</linearGradient>
<linearGradient id="paint12_linear_556_24918" x1="59.5" y1="15.321" x2="59.5" y2="106.059" gradientUnits="userSpaceOnUse">
<stop stop-color="#DEE0DD"/>
<stop stop-color="#C5C9C7"/>
<stop stop-color="#9EA4A5"/>
<stop stop-color="#82898C"/>
<stop stop-color="#71797D"/>
<stop stop-color="#6B7378"/>
<stop offset="0.2" stop-color="#333F47"/>
<stop offset="0.5" stop-color="#27343C"/>
<stop offset="0.8" stop-color="#333F47"/>
<stop offset="1" stop-color="#434D54"/>
</linearGradient>
<linearGradient id="paint13_linear_556_24918" x1="87.6157" y1="8.37748" x2="59.8885" y2="25.3088" gradientUnits="userSpaceOnUse">
<stop offset="0.7" stop-color="#27343C"/>
<stop offset="0.7" stop-color="#2B373F"/>
<stop offset="0.7" stop-color="#36424A"/>
<stop offset="0.7" stop-color="#49545B"/>
<stop offset="0.8" stop-color="#646D73" stop-opacity="0.01"/>
<stop offset="0.8" stop-color="#868D92" stop-opacity="0.01"/>
<stop offset="0.8" stop-color="#B0B5B8" stop-opacity="0.01"/>
<stop offset="0.8" stop-color="#E1E3E4" stop-opacity="0.01"/>
<stop offset="0.8" stop-color="white" stop-opacity="0.01"/>
</linearGradient>
</defs>
</svg>
