<svg width="131" height="131" viewBox="0 0 131 131" fill="none" xmlns="http://www.w3.org/2000/svg">
<path d="M74.1706 69.6169C74.0874 69.6377 73.7547 69.6377 73.6092 69.6377H62.8796V72.1329H73.7963C73.8795 72.1329 74.5241 72.1329 74.6489 72.1121C76.8738 71.9042 77.8927 70.0535 77.8927 68.4316C77.8927 66.7681 76.8322 64.9798 74.8152 64.7927C74.4201 64.7511 74.0874 64.7511 73.9419 64.7511H66.8096C66.4977 64.7511 66.1442 64.7303 66.0194 64.6887C65.458 64.5432 65.2501 64.0441 65.2501 63.6282C65.2501 63.254 65.458 62.7549 66.0402 62.5886C66.2066 62.547 66.3937 62.5262 66.7888 62.5262H77.0817V60.0725H66.6225C66.1858 60.0725 65.8531 60.0933 65.5828 60.1349C63.7945 60.3844 62.5469 61.8192 62.5469 63.649C62.5469 65.1462 63.4826 66.8929 65.5412 67.184C65.9155 67.2256 66.4353 67.2256 66.664 67.2256H73.6092C73.7339 67.2256 74.0458 67.2256 74.1082 67.2464C74.8984 67.3503 75.1687 67.9326 75.1687 68.4524C75.1687 68.9515 74.8568 69.4921 74.1706 69.6169Z" fill="black"/>
<path d="M53.8347 69.6169C53.7515 69.6377 53.4188 69.6377 53.294 69.6377H42.5436V72.1329H53.4604C53.5436 72.1329 54.1882 72.1329 54.3129 72.1121C56.5379 71.9042 57.5568 70.0535 57.5568 68.4316C57.5568 66.7681 56.4963 64.9798 54.4793 64.7927C54.0842 64.7511 53.7515 64.7511 53.6059 64.7511H46.4737C46.1618 64.7511 45.8083 64.7303 45.6835 64.6887C45.1221 64.5432 44.9141 64.0441 44.9141 63.6282C44.9141 63.254 45.1221 62.7549 45.7043 62.5886C45.8706 62.547 46.0578 62.5262 46.4529 62.5262H56.7458V60.0725H46.2865C45.8499 60.0725 45.5172 60.0933 45.2468 60.1349C43.4586 60.3844 42.2109 61.8192 42.2109 63.649C42.2109 65.1462 43.1467 66.8929 45.2052 67.184C45.5795 67.2256 46.0994 67.2256 46.3281 67.2256H53.2732C53.398 67.2256 53.7099 67.2256 53.7723 67.2464C54.5625 67.3503 54.8328 67.9326 54.8328 68.4524C54.8328 68.9515 54.5417 69.4921 53.8347 69.6169Z" fill="black"/>
<path d="M36.9512 59.9895H34.248V72.1955H36.9512V59.9895Z" fill="black"/>
<path d="M28.2791 72.1955V59.9895H25.5759V69.0972L16.5722 59.9895H13.0996V72.1955H15.8028V63.0462L24.8689 72.1955H28.2791Z" fill="black"/>
<path d="M115.217 59.9895V69.0972L106.214 59.9895H102.741V72.1955H105.444V63.0462L114.49 72.1955H117.9V59.9895H115.217Z" fill="black"/>
<path d="M88.6642 59.9895L81.0537 72.1955H84.3391L85.6907 70.0121H94.5697L95.9213 72.1955H99.1859L91.5754 59.9895H88.6642ZM93.1765 67.704H87.0839L90.1406 62.7967L93.1765 67.704Z" fill="black"/>
<path d="M28.1342 53.0656C33.5821 37.1584 48.5953 26.4704 65.5214 26.4704C82.4476 26.4704 97.4815 37.1584 102.909 53.0656L102.95 53.1904H114.865V51.7556L109.916 51.1734C106.86 50.8199 106.215 49.4683 105.383 47.7632L105.175 47.3473C98.0221 32.1263 82.4476 22.27 65.5214 22.27C48.5745 22.27 33.0207 32.1263 25.8676 47.3889L25.6597 47.8048C24.828 49.5099 24.1833 50.8615 21.1267 51.215L16.1777 51.7972V53.232H28.0718L28.1342 53.0656Z" fill="black"/>
<path d="M102.949 79.0159L102.907 79.1407C97.4594 95.0479 82.4463 105.715 65.5202 105.715C48.594 105.715 33.5601 95.0271 28.1329 79.1199L28.0913 78.9951H16.1973V80.4299L21.1462 81.0121C24.2029 81.3656 24.8475 82.7172 25.6792 84.4223L25.8872 84.8382C33.0402 100.101 48.6148 109.957 65.541 109.957C82.4671 109.957 98.0417 100.101 105.195 84.859L105.403 84.4431C106.234 82.738 106.879 81.3864 109.936 81.0329L114.885 80.4507V79.0159H102.949Z" fill="black"/>
</svg>
