<svg width="132" height="132" viewBox="0 0 132 132" fill="none" xmlns="http://www.w3.org/2000/svg">
<path d="M66.0051 118.406L78.9317 45.7058C91.2531 45.7058 95.1395 47.0569 95.7006 52.5717C95.7006 52.5717 103.966 49.4898 108.135 43.2306C91.867 35.6924 75.5215 35.3524 75.5215 35.3524L65.9836 46.9695L66.0051 46.968L56.4671 35.3506C56.4671 35.3506 40.1212 35.6909 23.8555 43.2291C28.0207 49.4884 36.2894 52.5703 36.2894 52.5703C36.8539 47.0551 40.7356 45.704 52.9742 45.6952L66.0051 118.406Z" fill="#E82127"/>
<path d="M65.9998 31.9967C79.1501 31.8962 94.2022 34.031 109.611 40.7469C111.67 37.0401 112.2 35.4018 112.2 35.4018C95.3558 28.7377 79.5816 26.4571 65.998 26.3999C52.4151 26.4571 36.6416 28.7381 19.7998 35.4018C19.7998 35.4018 20.5511 37.4197 22.3869 40.7469C37.7927 34.031 52.8473 31.8962 65.998 31.9967H65.9998Z" fill="#E82127"/>
</svg>
