<svg width="40" height="40" viewBox="0 0 40 40" fill="none" xmlns="http://www.w3.org/2000/svg">
<path d="M11.1769 8.46054C10.8263 8.67968 10.651 9.00838 10.651 9.48318C10.651 9.95797 10.8263 10.2867 11.1769 10.5058C11.4034 10.6446 11.5495 10.6519 13.96 10.6519H16.4946V11.8206V12.9894H13.3172C10.2785 12.9894 10.1251 12.9967 9.73794 13.1427C9.19742 13.3473 8.67149 13.8732 8.46696 14.4137C8.32087 14.8009 8.31356 14.9616 8.31356 17.4086V20.0017H7.14484H5.97611V17.4597C5.97611 15.0566 5.96881 14.9104 5.83003 14.684C5.61089 14.3334 5.28219 14.1581 4.80739 14.1581C4.3326 14.1581 4.00389 14.3334 3.78476 14.684C3.64597 14.9177 3.63867 15.0639 3.63867 21.1704C3.63867 27.277 3.64597 27.4232 3.78476 27.6569C4.00389 28.0074 4.3326 28.1827 4.80739 28.1827C5.28219 28.1827 5.61089 28.0074 5.83003 27.6569C5.96881 27.4304 5.97611 27.2843 5.97611 24.8739V22.3392H7.14484H8.31356V24.6327C8.31356 27.0797 8.33547 27.2477 8.7007 27.8103C8.94906 28.1827 13.3829 31.4917 13.792 31.6013C14.0403 31.6743 15.4501 31.6889 19.7451 31.6743L25.3696 31.6524L25.7348 31.4697C26.2316 31.2287 26.6771 30.7466 26.8597 30.2573C26.9986 29.892 27.0131 29.6947 27.0131 27.854V25.8453H28.1818H29.3506V27.7956C29.3506 29.6217 29.3578 29.7679 29.4967 29.9943C29.577 30.1257 29.745 30.2937 29.8766 30.3742C30.0957 30.5056 30.249 30.5202 31.8123 30.5202C33.2658 30.5202 33.5653 30.4983 33.9451 30.3814C35.0188 30.0454 35.932 29.125 36.2461 28.044C36.3483 27.6933 36.363 26.919 36.363 21.7547C36.363 16.5904 36.3483 15.8162 36.2461 15.4656C35.932 14.3846 35.0188 13.4641 33.9451 13.1281C33.5653 13.0113 33.2658 12.9894 31.8123 12.9894C30.249 12.9894 30.0957 13.004 29.8766 13.1354C29.745 13.2158 29.577 13.3838 29.4967 13.5153C29.3578 13.7417 29.3506 13.8878 29.3506 15.7066V17.6643H28.1818H27.0131V16.2399C27.0131 14.9834 26.9986 14.779 26.8597 14.4137C26.6553 13.8732 26.1293 13.3473 25.5887 13.1427C25.2016 12.9967 25.0483 12.9894 22.0096 12.9894H18.8321V11.8206V10.6519H21.374C23.7773 10.6519 23.9233 10.6446 24.1497 10.5058C24.5004 10.2867 24.6757 9.95797 24.6757 9.48318C24.6757 9.00838 24.5004 8.67968 24.1497 8.46054C23.916 8.32175 23.77 8.31445 17.6634 8.31445C11.5568 8.31445 11.4107 8.32175 11.1769 8.46054ZM24.6757 17.2772C24.6757 19.1033 24.683 19.2493 24.8218 19.4757C24.9021 19.6073 25.0701 19.7753 25.2016 19.8556C25.4281 19.9944 25.5741 20.0017 28.1818 20.0017C30.7896 20.0017 30.9357 19.9944 31.1621 19.8556C31.2936 19.7753 31.4616 19.6073 31.542 19.4757C31.6807 19.2493 31.688 19.1033 31.688 17.2699V15.3049L32.4111 15.3414C33.4046 15.3926 33.799 15.6336 33.9524 16.3202C34.0401 16.6927 34.0401 26.8169 33.9524 27.1893C33.799 27.876 33.4046 28.117 32.4111 28.1682L31.688 28.2047V26.2397C31.688 24.4063 31.6807 24.2603 31.542 24.0337C31.4616 23.9023 31.2936 23.7343 31.1621 23.654C30.9357 23.5152 30.7896 23.5079 28.1818 23.5079C25.5741 23.5079 25.4281 23.5152 25.2016 23.654C25.0701 23.7343 24.9021 23.9023 24.8218 24.0337C24.683 24.2603 24.6757 24.4063 24.6757 26.8094V29.3514H19.6501H14.6174L12.6378 27.876L10.6583 26.3932L10.651 20.8563V15.3269H17.6634H24.6757V17.2772Z" fill="#062E61"/>
<path d="M17.023 17.8119C16.855 17.9142 16.373 18.5643 15.4671 19.9303L14.1523 21.9098V22.3262C14.1523 22.7936 14.313 23.1296 14.6417 23.3415C14.8097 23.4511 15.0581 23.4803 16.2853 23.5095L17.7243 23.5461L17.1107 24.4811C16.519 25.3868 16.4898 25.4379 16.4898 25.8323C16.4898 26.3218 16.6578 26.6505 17.0157 26.8696C17.3444 27.0668 17.9726 27.0668 18.294 26.8696C18.462 26.7673 18.9441 26.1172 19.8498 24.7512L21.1647 22.7718V22.3553C21.1647 21.8879 21.004 21.5519 20.6753 21.3401C20.5073 21.2305 20.259 21.2012 19.0317 21.1721L17.5928 21.1355L18.2064 20.2005C18.798 19.2948 18.8273 19.2436 18.8273 18.8492C18.8273 18.3598 18.6593 18.0311 18.3013 17.8119C17.9726 17.6148 17.3444 17.6148 17.023 17.8119Z" fill="#062E61"/>
</svg>
