<svg width="27" height="27" viewBox="0 0 27 27" fill="none" xmlns="http://www.w3.org/2000/svg">
<path d="M4.97271 20.9554H22.0147M13.4937 16.6949C15.8467 16.6949 17.7542 18.6024 17.7542 20.9554M13.4937 16.6949C11.1407 16.6949 9.23321 18.6024 9.23321 20.9554M13.4937 16.6949L11.3634 11.3693M4.97271 13.4995H6.03783M20.9496 13.4995H22.0147M13.4937 4.97857V6.04369M19.3519 7.64138L18.2868 8.7065M7.63552 7.64138L8.70064 8.7065M25.2101 13.4995C25.2101 19.9703 19.9645 25.2159 13.4937 25.2159C7.02293 25.2159 1.77734 19.9703 1.77734 13.4995C1.77734 7.02879 7.02293 1.7832 13.4937 1.7832C19.9645 1.7832 25.2101 7.02879 25.2101 13.4995Z" stroke="#062E61" stroke-width="1.53851" stroke-linecap="round"/>
</svg>
