<svg width="24" height="24" viewBox="0 0 24 24" fill="none" xmlns="http://www.w3.org/2000/svg">
<path d="M14.2603 23.3897C14.2603 23.7268 13.9871 24 13.65 24H10.351C10.0139 24 9.74072 23.7268 9.74072 23.3897C9.74072 23.0526 10.0139 22.7794 10.351 22.7794H13.65C13.9871 22.7794 14.2603 23.0526 14.2603 23.3897ZM19.6439 17.5601V19.3183C19.6439 20.6243 18.5813 21.6868 17.2752 21.6868H6.72592C5.41995 21.6868 4.35742 20.6244 4.35742 19.3183V17.5601C4.35742 17.2231 4.63063 16.9498 4.96772 16.9498H5.13006C5.12863 16.9324 5.12782 16.9146 5.12782 16.8967V15.2612C5.12694 15.2249 5.12938 15.1889 5.13494 15.1535C5.14877 15.0634 5.18234 14.9799 5.2311 14.9073C5.2789 14.8358 5.34224 14.7738 5.41873 14.727C5.44972 14.708 5.48247 14.6916 5.51678 14.6783C5.75846 14.5777 5.99871 14.4737 6.23592 14.3673V6.91053C6.23592 5.69828 7.00726 4.63338 8.10743 4.22366C8.10614 4.1903 8.10553 4.15694 8.10553 4.1233V2.616C8.10546 1.17353 9.27899 0 10.7214 0H13.2796C14.722 0 15.8955 1.17353 15.8955 2.616V4.12337C15.8955 4.15694 15.8948 4.19037 15.8936 4.2236C16.3272 4.38485 16.7161 4.64945 17.0262 4.99332C17.037 4.97297 17.0477 4.9527 17.0586 4.93235C17.2158 4.63426 17.5849 4.52 17.8832 4.67738C18.1813 4.83464 18.2954 5.20387 18.1381 5.50196C16.9959 7.66689 15.3371 9.67287 13.2078 11.4641C11.5083 12.8937 9.57912 14.1286 7.45658 15.1471V16.9499H16.5446V9.60472C16.5446 9.26763 16.8178 8.99442 17.1549 8.99442C17.492 8.99442 17.7652 9.26763 17.7652 9.60472V16.9498H19.0336C19.3706 16.9498 19.6439 17.2231 19.6439 17.5601ZM9.32605 4.12337C9.32605 4.24828 9.34253 4.36946 9.37345 4.4848C9.3784 4.49972 9.38281 4.51491 9.38654 4.53037C9.56109 5.10188 10.0934 5.51878 10.7213 5.51878H13.2795C13.9074 5.51878 14.4397 5.10202 14.6143 4.53057C14.6182 4.51491 14.6226 4.49952 14.6276 4.48446C14.6584 4.36925 14.6749 4.24821 14.6749 4.12337V2.616C14.6749 1.84656 14.0489 1.22059 13.2795 1.22059H10.7213C9.95195 1.22059 9.32605 1.84656 9.32605 2.616V4.12337ZM7.45651 13.784C11.2664 11.85 14.3959 9.16273 16.3507 6.13911C16.1736 5.80881 15.893 5.55201 15.5596 5.40472C15.1106 6.20069 14.2568 6.73931 13.2795 6.73931H10.7213C9.74411 6.73931 8.8903 6.20062 8.44126 5.40466C7.85781 5.66234 7.45651 6.24809 7.45651 6.91053V13.784ZM18.4233 18.1704H17.164C17.1609 18.1704 17.1579 18.1705 17.1548 18.1705H6.84621C6.84316 18.1705 6.84011 18.1705 6.83699 18.1704H5.57802V19.3183C5.57802 19.9513 6.09297 20.4662 6.72592 20.4662H17.2752C17.9083 20.4662 18.4233 19.9513 18.4233 19.3183V18.1704Z" fill="#062E61"/>
</svg>
