<svg width="21" height="22" viewBox="0 0 21 22" fill="none" xmlns="http://www.w3.org/2000/svg">
<path d="M3.87731 10.5667L3.57761 9.06374C3.37782 8.98024 3.19051 8.89257 3.01569 8.80072C2.84087 8.70887 2.66189 8.59615 2.47874 8.46255L1.03023 8.91344L0.03125 7.21007L1.18007 6.20809C1.14677 5.99099 1.13012 5.77389 1.13012 5.5568C1.13012 5.3397 1.14677 5.1226 1.18007 4.90551L0.03125 3.90352L1.03023 2.20015L2.47874 2.65104C2.66189 2.51744 2.84087 2.40472 3.01569 2.31287C3.19051 2.22102 3.37782 2.13335 3.57761 2.04985L3.87731 0.546875H5.87526L6.17495 2.04985C6.37474 2.13335 6.56205 2.22102 6.73687 2.31287C6.91169 2.40472 7.09068 2.51744 7.27382 2.65104L8.72234 2.20015L9.72131 3.90352L8.57249 4.90551C8.60579 5.1226 8.62244 5.3397 8.62244 5.5568C8.62244 5.77389 8.60579 5.99099 8.57249 6.20809L9.72131 7.21007L8.72234 8.91344L7.27382 8.46255C7.09068 8.59615 6.91169 8.70887 6.73687 8.80072C6.56205 8.89257 6.37474 8.98024 6.17495 9.06374L5.87526 10.5667H3.87731ZM4.87628 7.56076C5.42572 7.56076 5.89607 7.36454 6.28733 6.9721C6.6786 6.57965 6.87423 6.10789 6.87423 5.5568C6.87423 5.0057 6.6786 4.53394 6.28733 4.14149C5.89607 3.74905 5.42572 3.55283 4.87628 3.55283C4.32684 3.55283 3.85649 3.74905 3.46523 4.14149C3.07396 4.53394 2.87833 5.0057 2.87833 5.5568C2.87833 6.10789 3.07396 6.57965 3.46523 6.9721C3.85649 7.36454 4.32684 7.56076 4.87628 7.56076ZM12.8181 21.5885L12.3686 19.4844C12.0856 19.3842 11.8233 19.2631 11.5819 19.1212C11.3405 18.9792 11.1032 18.8164 10.8701 18.6327L8.87218 19.284L7.47362 16.8792L9.07198 15.4764C9.03868 15.1758 9.02203 14.8752 9.02203 14.5747C9.02203 14.2741 9.03868 13.9735 9.07198 13.6729L7.47362 12.2701L8.87218 9.86533L10.8701 10.5166C11.1032 10.3329 11.3405 10.1701 11.5819 10.0282C11.8233 9.8862 12.0856 9.76513 12.3686 9.66493L12.8181 7.56076H15.6153L16.0648 9.66493C16.3478 9.76513 16.6101 9.8862 16.8515 10.0282C17.0929 10.1701 17.3302 10.3329 17.5633 10.5166L19.5612 9.86533L20.9598 12.2701L19.3614 13.6729C19.3947 13.9735 19.4114 14.2741 19.4114 14.5747C19.4114 14.8752 19.3947 15.1758 19.3614 15.4764L20.9598 16.8792L19.5612 19.284L17.5633 18.6327C17.3302 18.8164 17.0929 18.9792 16.8515 19.1212C16.6101 19.2631 16.3478 19.3842 16.0648 19.4844L15.6153 21.5885H12.8181ZM14.2167 17.5806C15.0492 17.5806 15.7568 17.2884 16.3395 16.7039C16.9223 16.1194 17.2136 15.4096 17.2136 14.5747C17.2136 13.7397 16.9223 13.0299 16.3395 12.4454C15.7568 11.8609 15.0492 11.5687 14.2167 11.5687C13.3842 11.5687 12.6766 11.8609 12.0939 12.4454C11.5111 13.0299 11.2198 13.7397 11.2198 14.5747C11.2198 15.4096 11.5111 16.1194 12.0939 16.7039C12.6766 17.2884 13.3842 17.5806 14.2167 17.5806Z" fill="#062E61"/>
</svg>
