<svg width="17" height="17" viewBox="0 0 17 17" fill="none" xmlns="http://www.w3.org/2000/svg">
<g clip-path="url(#clip0_741_21932)">
<path d="M15.2183 12.0323C14.4487 11.1145 12.7061 10.9715 12.2521 10.95C9.28363 10.6767 7.93979 11.4108 7.01618 11.92C6.89602 11.9847 6.77845 12.0545 6.66485 12.1289C6.45521 12.2667 6.35222 12.3574 6.35222 12.3574C5.54085 12.9991 4.97998 13.8978 4.765 14.901C4.72427 15.0959 4.88121 15.2699 5.0829 15.2682H8.10536C8.13229 15.0706 8.2311 14.8895 8.38335 14.7582C8.53563 14.627 8.73103 14.5547 8.9333 14.5547H13.4006C13.8235 14.5547 14.1735 14.8661 14.2275 15.2682H14.4775C14.7729 15.2522 15.265 15.1752 15.5458 14.8488C16.0777 14.2518 16.029 12.9981 15.2213 12.032M4.59843 12.7356L2.6839 5.07154C2.64025 4.89685 2.66674 4.80998 2.68475 4.77384C2.70212 4.73902 2.74246 4.68891 2.85112 4.64641C3.09154 4.5524 3.55916 4.54699 4.16765 4.78367C5.34898 5.24314 6.8069 6.52827 7.39942 8.90018L7.77771 10.4136C5.72305 11.3066 5.17885 12.1078 4.59843 12.7356ZM13.4798 15.7298V16.0123H8.84738V15.7298V15.6025C8.84738 15.5696 8.87682 15.5296 8.92932 15.5296H13.3966C13.4507 15.5296 13.4798 15.5712 13.4798 15.6025V15.7298Z" stroke="#062E61" stroke-width="0.8" stroke-linecap="round" stroke-linejoin="round"/>
<path d="M5.19239 4.14048C4.67015 2.35933 3.50449 0.493625 1.92221 0.443685H1.91327C1.41753 0.429324 1.04828 0.891833 1.16684 1.36609L1.86227 4.14997L1.89406 4.10754C2.17455 3.75502 2.65076 3.56112 3.23691 3.56112C3.77836 3.56112 4.47543 3.7403 5.19239 4.14048Z" stroke="#062E61" stroke-width="0.8" stroke-linecap="round" stroke-linejoin="round"/>
</g>
<defs>
<clipPath id="clip0_741_21932">
<rect width="17" height="17" fill="white"/>
</clipPath>
</defs>
</svg>
