<svg width="23" height="24" viewBox="0 0 23 24" fill="none" xmlns="http://www.w3.org/2000/svg">
<path d="M22.1875 4.50007C22.1871 3.79877 21.9901 3.11164 21.6188 2.51668C21.2476 1.92172 20.7169 1.44279 20.0871 1.1343C19.4573 0.825786 18.7536 0.700067 18.0559 0.77141C17.3584 0.842754 16.6947 1.10831 16.1404 1.53791C15.586 1.96749 15.1634 2.54392 14.9202 3.20171C14.677 3.8595 14.6232 4.5723 14.7647 5.25915C14.9063 5.946 15.2378 6.57939 15.7212 7.08737C16.2047 7.59534 16.8211 7.95755 17.5 8.13289V10.1251C17.5 10.3737 17.4012 10.6122 17.2255 10.788C17.0496 10.9638 16.8111 11.0626 16.5625 11.0626H6.24999C5.93055 11.0625 5.61345 11.1172 5.31249 11.2243V8.13289C6.19624 7.9047 6.96643 7.36204 7.4787 6.60664C7.99095 5.85122 8.21012 4.9349 8.0951 4.02945C7.98011 3.12399 7.53881 2.29157 6.85397 1.68821C6.16912 1.08484 5.28772 0.751967 4.37499 0.751967C3.46228 0.751967 2.58088 1.08484 1.89604 1.68821C1.21119 2.29157 0.769894 3.12399 0.6549 4.02945C0.539888 4.9349 0.759056 5.85122 1.27131 6.60664C1.78358 7.36204 2.55377 7.9047 3.43749 8.13289V15.8673C2.55377 16.0955 1.78358 16.6381 1.27131 17.3936C0.759056 18.149 0.539888 19.0653 0.6549 19.9708C0.769894 20.8762 1.21119 21.7085 1.89604 22.3119C2.58088 22.9153 3.46228 23.2483 4.37499 23.2483C5.28772 23.2483 6.16912 22.9153 6.85397 22.3119C7.53881 21.7085 7.98011 20.8762 8.0951 19.9708C8.21012 19.0653 7.99095 18.149 7.4787 17.3936C6.96643 16.6381 6.19624 16.0955 5.31249 15.8673V13.8751C5.31249 13.6264 5.41127 13.388 5.58709 13.2122C5.76291 13.0363 6.00137 12.9376 6.24999 12.9376H16.5625C17.3084 12.9376 18.0239 12.6412 18.5513 12.1138C19.0787 11.5864 19.375 10.871 19.375 10.1251V8.13289C20.1797 7.92388 20.8922 7.45385 21.4013 6.79648C21.9102 6.13909 22.1867 5.33145 22.1875 4.50007ZM2.49999 4.50007C2.49999 4.12924 2.60996 3.76672 2.81601 3.45838C3.02203 3.15004 3.31487 2.90972 3.65747 2.7678C4.00009 2.62588 4.37707 2.58875 4.74081 2.66109C5.10452 2.73345 5.43861 2.91202 5.70082 3.17424C5.96304 3.43646 6.14162 3.77057 6.21398 4.13428C6.28633 4.49799 6.24919 4.875 6.10727 5.2176C5.96537 5.56022 5.72503 5.85305 5.41669 6.05908C5.10836 6.2651 4.74585 6.37507 4.37499 6.37507C3.87773 6.37507 3.4008 6.17752 3.04918 5.8259C2.69754 5.47427 2.49999 4.99736 2.49999 4.50007ZM6.24999 19.5001C6.24999 19.871 6.14004 20.2334 5.934 20.5417C5.72797 20.8501 5.43514 21.0905 5.09254 21.2323C4.74992 21.3742 4.37293 21.4113 4.0092 21.3391C3.64549 21.2668 3.3114 21.0881 3.04918 20.8259C2.78696 20.5636 2.60837 20.2295 2.53603 19.8659C2.46368 19.5022 2.50082 19.1251 2.64274 18.7826C2.78464 18.44 3.02497 18.1471 3.3333 17.9411C3.64164 17.735 4.00416 17.6251 4.37499 17.6251C4.87228 17.6251 5.34919 17.8226 5.70082 18.1743C6.05246 18.5259 6.24999 19.0029 6.24999 19.5001ZM18.4375 6.37507C18.0666 6.37507 17.7042 6.2651 17.3957 6.05908C17.0875 5.85305 16.8471 5.56022 16.7052 5.2176C16.5632 4.875 16.5261 4.49799 16.5985 4.13428C16.6709 3.77057 16.8494 3.43646 17.1117 3.17424C17.374 2.91202 17.7079 2.73345 18.0717 2.66109C18.4354 2.58875 18.8125 2.62588 19.1551 2.7678C19.4976 2.90972 19.7905 3.15004 19.9966 3.45838C20.2026 3.76672 20.3125 4.12924 20.3125 4.50007C20.3125 4.99736 20.1149 5.47427 19.7633 5.8259C19.4117 6.17752 18.9347 6.37507 18.4375 6.37507Z" fill="#062E61"/>
</svg>
