<svg width="20" height="20" viewBox="0 0 20 20" fill="none" xmlns="http://www.w3.org/2000/svg">
<path d="M16.5926 6.14145H17.3883C18.1328 6.14145 18.7385 5.53579 18.7385 4.79129V1.35016C18.7385 0.60566 18.1328 0 17.3883 0H16.5926C15.8481 0 15.2423 0.60566 15.2423 1.35016V2.5896H11.8822C11.6676 1.75005 10.9048 1.12744 9.99931 1.12744C9.09374 1.12744 8.33095 1.75005 8.11631 2.5896H4.75596V1.35016C4.75596 0.60566 4.1503 0 3.40591 0H2.61014C1.86559 0 1.25982 0.60566 1.25982 1.35016V4.79129C1.25982 5.53579 1.86559 6.14145 2.61019 6.14145H3.40591C4.1503 6.14145 4.75596 5.53579 4.75596 4.79129V3.55185H8.11631C8.29161 4.23748 8.83247 4.7783 9.51816 4.9536V13.9354C8.89946 14.1382 8.45119 14.7208 8.45119 15.4065V16.448H4.75596V15.2086C4.75596 14.4641 4.1503 13.8584 3.40591 13.8584H2.61014C1.86553 13.8584 1.25977 14.4641 1.25977 15.2086V18.6497C1.25977 19.3942 1.86553 19.9999 2.61014 19.9999H3.40585C4.15024 19.9999 4.75591 19.3942 4.75591 18.6497V17.4103H8.45113V18.4519C8.45113 19.3054 9.14565 19.9998 9.99926 19.9998C10.8528 19.9998 11.5472 19.3054 11.5472 18.4519V17.4103H15.2423V18.6497C15.2423 19.3942 15.848 19.9999 16.5926 19.9999H17.3883C18.1328 19.9999 18.7384 19.3942 18.7384 18.6497V15.2086C18.7384 14.4641 18.1328 13.8584 17.3883 13.8584H16.5926C15.848 13.8584 15.2423 14.4641 15.2423 15.2086V16.448H11.5472V15.4065C11.5472 14.7209 11.099 14.1384 10.4804 13.9355V4.95365C11.166 4.77835 11.7069 4.23748 11.8822 3.5519H15.2423V4.79134C15.2423 5.53579 15.8481 6.14145 16.5926 6.14145ZM3.79366 4.79129C3.79366 5.00513 3.61975 5.17915 3.40591 5.17915H2.61014C2.39619 5.17915 2.22206 5.00513 2.22206 4.79129V1.35016C2.22206 1.13631 2.39613 0.962299 2.61014 0.962299H3.40585C3.6197 0.962299 3.79361 1.13631 3.79361 1.35016L3.79366 4.79129ZM3.79366 18.6498C3.79366 18.8637 3.61975 19.0377 3.40591 19.0377H2.61014C2.39619 19.0377 2.22206 18.8637 2.22206 18.6498V15.2087C2.22206 14.9949 2.39613 14.8209 2.61014 14.8209H3.40585C3.6197 14.8209 3.79361 14.9949 3.79361 15.2087L3.79366 18.6498ZM16.2046 15.2087C16.2046 14.9948 16.3787 14.8208 16.5926 14.8208H17.3883C17.6022 14.8208 17.7762 14.9948 17.7762 15.2087V18.6498C17.7762 18.8636 17.6022 19.0376 17.3883 19.0376H16.5926C16.3787 19.0376 16.2046 18.8636 16.2046 18.6498V15.2087ZM10.5849 18.452C10.5849 18.7749 10.3222 19.0376 9.99931 19.0376H9.99921C9.67625 19.0376 9.41349 18.7749 9.41349 18.452V15.4065C9.41349 15.0836 9.6763 14.8208 9.99931 14.8208C10.3222 14.8208 10.5849 15.0836 10.5849 15.4065V18.452ZM10.0334 4.05C10.0221 4.04919 10.0108 4.04829 9.99931 4.04829C9.98782 4.04829 9.97654 4.04919 9.96526 4.05C9.44011 4.03182 9.01825 3.60018 9.01825 3.07075C9.01825 2.52983 9.45834 2.08974 9.99937 2.08974C10.5403 2.08974 10.9803 2.52978 10.9803 3.07075C10.9803 3.60018 10.5584 4.03182 10.0334 4.05ZM16.2046 1.35016C16.2046 1.13631 16.3787 0.962299 16.5926 0.962299H17.3883C17.6022 0.962299 17.7762 1.13631 17.7762 1.35016V4.79129C17.7762 5.00513 17.6022 5.17915 17.3883 5.17915H16.5926C16.3787 5.17915 16.2046 5.00513 16.2046 4.79129V1.35016Z" fill="#062E61"/>
</svg>
